<?xml version="1.0" standalone="no"?>
<!DOCTYPE svg PUBLIC "-//W3C//DTD SVG 1.1//EN" "http://www.w3.org/Graphics/SVG/1.1/DTD/svg11.dtd" >
<svg>
<metadata>
Created by FontForge 20090914 at Mon Sep 14 06:44:43 2015
 By www-data
</metadata>
<defs>
<font id="Triforce" horiz-adv-x="300" >
  <font-face 
    font-family="Triforce"
    font-weight="400"
    font-stretch="normal"
    units-per-em="1000"
    panose-1="0 0 0 0 0 0 0 0 0 0"
    ascent="800"
    descent="-200"
    x-height="605"
    cap-height="700"
    bbox="-30 -297 1160 762"
    underline-thickness="50"
    underline-position="-50"
    unicode-range="U+0020-U+007D"
  />
<missing-glyph 
 />
    <glyph glyph-name=".notdef" 
 />
    <glyph glyph-name="space" unicode=" " 
 />
    <glyph glyph-name="space" unicode="&#xa0;" 
 />
    <glyph glyph-name="exclam" unicode="!" horiz-adv-x="262" 
d="M-3 700h241l-21 -651h-95l-15 578zM115 -23h102v-143h-102v143zM142 372l30 -48l31 48l-30 237zM172 261l-29 -38l29 -39l31 39z" />
    <glyph glyph-name="quotedbl" unicode="&#x22;" horiz-adv-x="208" 
d="M71 702l-21 -173h-34l-16 173h71zM186 702l-21 -173h-34l-16 173h71z" />
    <glyph glyph-name="numbersign" unicode="#" horiz-adv-x="598" 
d="M77 516h134l66 184h57l-65 -184h128l67 184h57l-66 -184h123l-20 -54h-121l-45 -126h126l-16 -52h-130l-66 -185h-56l66 185h-128l-66 -185h-58l65 185h-129l16 52h130l47 126h-137zM336 336l43 126h-128l-46 -126h131z" />
    <glyph glyph-name="dollar" unicode="$" horiz-adv-x="584" 
d="M546 446c1.33301 -10 3.33398 -20.3311 6.00098 -30.998s4.5 -21.334 5.5 -32.001s0.5 -21.167 -1.5 -31.5s-7 -19.833 -15 -28.5l-133.5 -152c-44.333 -50.667 -90.166 -99.667 -137.499 -147c-12 -1.33301 -23.667 -1.66602 -35 -0.999023s-22.333 2 -33 4
s-21.167 3.83301 -31.5 5.5s-19.833 2.83398 -28.5 3.50098s-18.334 1.66699 -29.001 3l-31 4c-10 1.33301 -18.833 2.66602 -26.5 3.99902s-12.5 2.66602 -14.5 3.99902c-8.66699 5.33301 -13.834 12.5 -15.501 21.5s-3.16699 17.5 -4.5 25.5
c-1.33301 18 -2.83301 35.5 -4.5 52.5s-3.83398 34.167 -6.50098 51.5c-1.33301 16 -3.5 31.667 -6.5 47s-4.16699 31.333 -3.5 48c5.33301 10 11.833 19.5 19.5 28.5s14.834 18.5 21.501 28.5l68 76.5l68 77.5l39 46.5l43 51.5c3.33301 4.66699 7.83301 8 13.5 10
s11.5 3.33301 17.5 4s11.667 1 17 1s9 0.333008 11 1c29.333 3.33301 58.833 5 88.5 5s59.167 1.66699 88.5 5c4.66699 -0.666992 8.66699 -2.33398 12 -5.00098s5.33301 -5.66699 6 -9c2 -11.333 3.66699 -22.5 5 -33.5s3.33301 -22.167 6 -33.5l12 -57zM95.001 376.002
l-15.501 -19.5c-5.66699 -7 -10.167 -14.167 -13.5 -21.5c7.33301 -3.33301 14.666 -3 21.999 1s13.333 7.66699 18 11c23.333 19.333 44.833 40.5 64.5 63.5l58.5 66.5c2.66699 4 4.83398 8.33301 6.50098 13s4.16699 9 7.5 13c1.33301 6.66699 2 14 2 22
s-1.66699 14.333 -5 19c-22.667 -28.667 -47.167 -56.167 -73.5 -82.5s-50.166 -54.833 -71.499 -85.5zM41 136.002c4 -5.33301 9.00195 -6.16699 15.002 -2.5s11.667 8.16699 17 13.5c1.33301 2.66699 4.16602 7 8.49902 13s6.16602 14.667 5.49902 26
c1.33301 9.33301 0.833008 17.666 -1.5 24.999s-7.5 14 -15.5 20c-2 0 -4.66699 0.833008 -8 2.5s-6.83301 2.83398 -10.5 3.50098s-7 0.5 -10 -0.5s-5.16699 -3.5 -6.5 -7.5c5.33301 -29.333 7.33301 -60.333 6 -93zM245.002 54.001c0 10 -0.333008 20.665 -1 31.998
s-2.66699 22 -6 32c-5.33301 2 -10.833 4.5 -16.5 7.5s-11.167 5.16699 -16.5 6.5c-10 1.33301 -19.833 2.33301 -29.5 3s-18.834 2.66699 -27.501 6c-12 -9.33301 -23.5 -19.166 -34.5 -29.499s-21.833 -21.166 -32.5 -32.499v-6c10 -4.66699 19.833 -7.66699 29.5 -9
s19.5 -2.16602 29.5 -2.49902s20.167 -0.5 30.5 -0.5s21.5 -0.666992 33.5 -2c11.333 -1.33301 19.833 -3.33301 25.5 -6s10.834 -2.33398 15.501 0.999023zM417.002 343.999c6 6 10.1699 13.0039 12.5029 21.0039s3.66602 16 3.99902 24s0 15.667 -1 23s-1.5 13 -1.5 17
c-0.666992 5.33301 -2.5 14 -5.5 26s-5.83301 22.667 -8.5 32c-4 1.33301 -10.5 2.16602 -19.5 2.49902s-17.5 0.166016 -25.5 -0.500977c-13.333 1.33301 -25.833 0.666016 -37.5 -2.00098s-23.167 -5.66699 -34.5 -9c-23.333 -18.667 -44 -38.834 -62 -60.501l-55 -65.5
c-4.66699 -6.66699 -10 -13 -16 -19s-11.833 -12.167 -17.5 -18.5s-10.667 -12.833 -15 -19.5s-7.16602 -14 -8.49902 -22c1.33301 -12 2.16602 -21.5 2.49902 -28.5s1.83301 -14.5 4.5 -22.5c1.33301 -7.33301 2.16602 -13.666 2.49902 -18.999
s1.16602 -10.666 2.49902 -15.999c2 -8.66699 8 -14.834 18 -18.501s17.667 -6.16699 23 -7.5c6 -1.33301 12 -3 18 -5s12.333 -3.66699 19 -5s13 -1.83301 19 -1.5s12 2.16602 18 5.49902c12 16.667 25 32.667 39 48l42.5 46.5l43 46.5c14.333 15.333 27.5 31.333 39.5 48z
M409.005 519.003c10.667 14 21.9961 27.501 33.9961 40.501s21.667 26.833 29 41.5c-27.333 2.66699 -51.666 2.16699 -72.999 -1.5s-45.666 -5.83398 -72.999 -6.50098h-17c-1.33301 0 -3.16602 0.166992 -5.49902 0.5s-4.16602 -0.166992 -5.49902 -1.5
c0 -9.33301 0.666992 -16.833 2 -22.5s2.66602 -12.5 3.99902 -20.5c1.33301 -6.66699 2.33301 -13.834 3 -21.501s2.66699 -14.167 6 -19.5c9.33301 -1.33301 18.333 -1.66602 27 -0.999023s18.334 1.33398 29.001 2.00098c7.33301 1.33301 14.333 1.66602 21 0.999023
s13 2.33301 19 9zM345.001 456.004c14 0.666992 26.5 -3.50195 37.5 -12.502s19.833 -19.167 26.5 -30.5c2 -6.66699 1.16699 -14.5 -2.5 -23.5s-8.5 -18.333 -14.5 -28s-12.667 -18.667 -20 -27l-18 -20.5c-17.333 -18.667 -33.5 -37.667 -48.5 -57
s-32.167 -37.666 -51.5 -54.999c-7.33301 -6 -15.833 -11.5 -25.5 -16.5s-20.167 -4.83301 -31.5 0.5c-15.333 8 -25.166 17.833 -29.499 29.5s-8.16602 23.834 -11.499 36.501c-2.66699 9.33301 -2.83398 17 -0.500977 23s5.16602 11 8.49902 15l64 69l65 67l25 16.5
c8.66699 5.66699 17.667 10.167 27 13.5zM386.001 385.002c4 5.33301 5.50098 11.165 4.50098 17.498s-3.16699 12.166 -6.5 17.499c-5.33301 4.66699 -10.666 8.83398 -15.999 12.501s-12 4.83398 -20 3.50098c-7.33301 -3.33301 -13.833 -6.83301 -19.5 -10.5l-16.5 -10.5
c-5.33301 -4 -11.833 -9.83301 -19.5 -17.5l-23 -23.5l-21.5 -22c-6.66699 -6.66699 -11.334 -11 -14.001 -13c-1.33301 -2 -4.66602 -5.66699 -9.99902 -11l-17.5 -18c-6.33301 -6.66699 -12.333 -13.667 -18 -21s-9.5 -13.666 -11.5 -18.999
c-1.33301 -3.33301 -2 -8.16602 -2 -14.499s0.666992 -12.833 2 -19.5s3.66602 -13 6.99902 -19s7.66602 -11 12.999 -15c9.33301 -3.33301 17.666 -3.83301 24.999 -1.5s13.833 6 19.5 11s11 10.5 16 16.5s9.5 11.667 13.5 17l26 29l31 33c4 5.33301 9 11.666 15 18.999
l17.5 22c5.66699 7.33301 10.834 14.333 15.501 21s8 12 10 16z" />
    <glyph glyph-name="percent" unicode="%" horiz-adv-x="1007" 
d="M971 35l28 -17v-8l-72 -11l-4 4l-47 -7l-96 28l-22 9l-25 6l-96 29h-6l-14 -19l-2 -14l-9 -8l-21 2l-5 -15l-14 -34l-67 -71l19 -19l18 -8l26 -30v-10l4 -1l-4 -3l4 -3l-4 -3l6 -9l-61 -2l-52 7l-51 20l-55 15l-3 -3l-9 3h-6v4l11 6l-1 3l1 14l33 39l18 19l7 30l9 11
l2 19l4 2l-21 12l-20 5l-18 -9l-15 -15l-31 -18l-34 -12l-10 -9l4 -59l-5 -9l1 -4l-8 -14l8 -5h4l-9 -6l-3 4l-7 -4l-12 4l-3 -4l-47 6l-24 -13l-52 3l-3 2l-2 -2l-4 2h-6v6l3 2l-18 31l-5 32l1 4l-4 11l-44 33l-15 120l-6 63h-1v11h1v-3l4 -3l-4 -2l10 -36l2 11l-13 131
l1 4l-1 1v7h1l4 3l2 -3h4l2 3l-2 2l2 2l-2 4h-4l4 2l63 13l7 10l8 21l25 23v11l34 27l-9 35l-60 3l-9 6h-29l-4 2l-1 -2l-4 2h-2v4l17 4l8 8l-12 7l33 18l16 17l37 30l2 4v3l-2 4l10 21l19 31l10 7l5 15l26 27l31 31l31 11l32 1l3 3l66 -3l19 -7l44 -30l35 -39l19 -41
l23 -27l2 -61l-10 -56l-18 -32l-7 -8v-7l14 -19v-25l-4 -4l6 -29l5 -15l4 -15l8 -35l27 -34l34 -33v-11l8 -7l18 -4v-3l-25 7l-1 1l-15 -23l-6 -7l-19 -12h-4l-4 -2l4 -8l34 -26h14l4 1l13 -5l-8 4h-3l-6 -6l9 -9l16 4l7 7l4 27l8 20v12l-14 12l-1 3l21 -11h1l22 39l3 5
l15 -4l4 -7l-12 -37v-4l18 -8l72 -17l123 -30l50 -14l19 -13h5l25 -17v0zM649 172l-15 -30l15 25l15 5l3 3l-6 6h-9l-3 -9v0zM184 619l-2 -9l54 18l3 -3h12l14 3l1 -3h6l38 -6l6 -5l21 -6l25 -13l43 -44l18 -36v11l2 3l5 -7v-10l-2 -34l14 32l7 27l4 25l-15 19l-10 25l2 2
l29 -43l3 -28l5 10h2l4 -2l-4 -1v-10l-20 -44l6 -5v-10l-2 -4l-9 -38l4 -2l36 -18l4 11l6 17l5 9l7 51l-3 2l3 4l1 15l-1 4l1 3v5l-1 3l1 3l-27 38l-18 38l-43 44h-4l-11 12l-29 16l-29 6l-19 -4l-62 -7l-21 -6l-60 -58v0zM425 364l5 -6l-2 -29l20 25l26 48l-7 10l-25 7
l-23 -36l-26 -19v-16l-12 -28l-21 -21l-4 2l4 19l-4 5l-14 -26l-21 -33h-9l-21 15l-3 -1l-5 -142l3 -1h2l64 26l8 -2l21 11v6l-2 -3h-5l-3 3v3l27 30l13 26l-2 4l2 15l-2 18l2 19l8 64l6 7v0zM409 186l-4 11h-5l-6 -9l15 -2v0zM365 156l-13 -8l13 5v3v0zM286 117l-3 2v4h-3
v-11h3l27 7l27 18l4 8h-4l-6 -11l-21 -11l-24 -6v0zM297 128h1l29 14h-6l-24 -14v0zM319 116l-39 -14l3 -19l22 10l47 44l-33 -21v0zM184 402l-6 -40l4 -14l15 -16l11 32l-12 52l-12 22l1 -16l-1 -20v0zM177 401l1 18l-11 19l-10 3l2 -28l14 -15l4 3v0zM217 362l-9 -33
l18 -5l29 1l-19 23l-19 14v0zM221 369l34 -21l31 -13l66 23l8 10l5 -6l-3 -4l3 -29l6 -11l10 19l5 75l14 29l-2 19l-8 22l-15 14v-8l19 -36l-9 -33l-4 3l4 34l-6 7l-19 3l-6 -3l17 -13v-6l-4 -3l-2 3l-5 8l-14 4l3 -4v-11l-8 -8h-10l-7 8l-12 9l-2 -4h-12l-5 6h-7l-9 -2
l-1 2v4l-10 -12h-1v-6l-4 -4l-3 4l-7 -7h-7l-8 2l-4 11h-11l-7 -3l3 -10l-3 -4l-3 4l-4 10l1 3l-1 2l-15 -5l5 -10l24 -62v0zM244 446l7 -2v2h-7v0zM371 478l-4 4v14l-13 -14h8l9 -4v0zM356 475h-7l-22 -12l29 12v0zM416 406l-16 -17h-6v-14l4 4h2l23 22l11 23l4 26h-8
l-5 -4l-2 -19l-7 -21v0zM400 401l5 5h4l6 21l-15 -26v0zM436 457l2 -1v1l6 18h-2l-8 -7l-25 -24l-15 -31h4v3l25 36l13 5v0zM265 332v-3l7 -9l14 -7l2 -14l20 -19l11 -4l27 48l10 21l-4 9l-17 -11l-42 -18l-7 -1l-21 8v0zM145 556l-1 -9l1 -2l18 6l2 -4l19 9l38 3l44 -5
l50 -10l38 -18l46 -48l5 -28l10 7l1 39l-7 30l-11 19l-33 36l-16 10l-22 9l-19 6l-6 4l-69 6l-41 -10l-22 -11l-25 -39v0zM154 450l47 13l2 -3l-2 -3v-1h2l23 4l54 22l3 -4v-1l-6 -6l-30 -14l11 3l33 11l44 30l2 -1v-7l-6 -5l-19 -17l15 4l33 21l5 11l-11 8l-27 14l-62 16
l-80 2l-18 -10h-8l-14 -3l-49 -44h2l3 -2v-3l-5 -7h-2l-11 -15l-17 -6h9l3 -1l35 1l10 -5v-2h31v0zM154 394l-21 -21l5 -11l27 -33l17 -4v7l-9 13l-6 23l3 19l-7 7h-9v0zM108 343l-12 -23h8l9 4l39 5l-12 16l-13 13l-6 -1l-13 -14v0zM31 87l3 -3l7 -81l5 -12v4l6 4h4l4 -8
l-4 -6l4 -7h6l12 -12l10 8l2 -1v-3l-5 -9l23 -13l11 5l2 -2v-3l-2 -8l21 -18h5v4l9 8l5 -5l-5 -13l16 6l12 8h-5l-4 4v6l5 5h6l5 -5l-4 -4h4l22 19h-3l-1 4v5l4 6l10 -9l7 9l11 14h-3l-4 5l4 6l8 -4v4l7 84l-4 140l4 3l-4 2v8l-5 61h-9l-5 6l4 2l-4 3l-17 6l-8 -4l4 -2v-3
l-6 -6h-4l-5 6v3l5 6h-27l-11 -6l4 -3l4 -8l3 -86h8l19 -2l4 2h2l39 -2l2 -67l-5 -7l-32 -5l-4 2l-38 -5v-108l5 -11l-3 -1l3 -19l-3 -18l-57 -5l-2 3l-4 10l-6 29l3 1l-3 4v7l-2 76l-6 26l-55 -5l-4 5l3 61l-3 8l8 7l36 4l15 7v84l11 5l-5 8l-32 -6l2 -10l-2 -4h-7l-1 4v10
l-25 -4v-3l3 -8l-3 -4h-9l-2 4v5h-6l11 -110l-3 -3l5 -68l7 -13l-3 -4v0zM133 293l-35 -8v-88l-4 -5l-37 -4l-18 -6l2 -63h11l14 4l32 5l3 -2v-3l7 -36l-4 -3l6 -100l5 -11h12l32 1l-2 152l6 5h2l56 7l7 -1l5 5l-1 58h-11l-37 -3l-21 3l-4 80l4 1l-4 4l-2 8h-24v0zM108 304
l5 -9l35 6v5h-15l-25 -2v0zM44 -15v5h-5v-5h5v0zM78 -45l30 -19l-62 44l32 -25v0zM184 -118l8 3l22 20l18 36h-4l-11 -11l-44 -29l-14 -4l-74 39v-21l19 -37l23 -13h36l15 8v5l4 4h2v0zM265 -74l-4 8l4 2l-4 4v21h-6l-8 -6l-14 -26h3l15 19l2 -3v-4l-9 -15l-18 -21l-19 -20
v-7h25l12 8l14 19l7 21v0zM265 116l-4 1l5 43l-1 1l1 2l-1 4l1 8l-1 3l1 3l-1 1v10l1 1l-1 4v3l1 4l-1 1v6l1 69l-1 1v4l1 3l-1 3v13l-10 9l-8 -3l-11 4l-39 4h-1h-2l-42 2l-7 -6l-1 4l-66 -8l-53 -15h2l19 6l4 -2l2 2l27 5l4 -2l2 2h3l25 7l81 5h3l42 -5l14 -14l2 -18
l-2 -1l2 -4l6 -94l-3 -80l3 -4l-3 -2l3 -3l-6 -78l3 -1l-7 -30l-30 -33l-48 -36l-19 -6h11l20 11l43 33l23 20l7 12l7 117l-4 2l4 2v3l-4 3l4 4v0zM266 39l4 -15l-4 -39l6 33l-2 4v2v3l2 20l-2 2l2 3v10l-2 3l2 3l-2 4l2 1v10l4 29l-4 4l5 22l-1 4l1 8l-1 3l1 3l6 139l-6 15
h-7l2 -6l-2 -3l2 -2v-18l-6 -242v0zM341 10l97 109l11 7l29 12l-4 4l-19 8l-30 17l-2 -4l-23 9v3l4 3h-10l-9 -22l-23 -30l-6 5l-21 -25l-38 -29l-14 -4l-6 -46l3 -3v-9l-3 -1l3 -4l-3 -2v-13l-5 -17l40 17l29 15v0zM352 -129v2h-3v-2h3v0zM425 -154h5l-11 5l-10 6l-24 3
l15 -3l19 -6l6 -5v0zM554 -22l7 6l-4 1l-4 -6l1 -1h-1l-15 -8l-27 -9l-31 3l-25 10l-36 30l6 -15l-2 -4h-4l-4 6l-4 -2l8 -15l-4 -4l-6 4l-5 -4l-6 -30l-12 -11l-32 -33l-2 -18l15 -7l42 -4l14 -10l46 -15l37 -4l7 3l4 -3l15 -3l25 3v8l-3 2l-13 19l-24 19l-4 -1l-2 1v4
l-19 7l-29 -7l-21 7v4l2 3l18 -3l1 3l4 -3l2 3h5l33 25l-27 -3l-17 4l-1 -1l-3 1l-17 10l-19 15l-4 11l4 4l7 -9l19 -16l18 -5l25 -4l26 9l35 33h1v0zM573 14l3 13l-3 13l-24 37l-13 7v7l-8 7h-4l-17 14l-8 7l4 4h15l11 5l3 -2l4 2l7 3l18 17l5 24l-42 44l-18 29l-18 59
l-3 60l-11 16l-19 -26l-19 -41h2l4 1l17 31l3 -2v-4l-13 -26l-26 -33v-10l-4 -38l-8 -28l4 -11l21 -23l19 -9l33 -23l9 -12l-3 -3l-25 5l-16 -5v-4l-5 -3h-4l-33 -33l-36 -50l59 -19l10 -11l-2 -4l6 -8l25 -17l33 -1l32 5l13 11v6l22 19v0zM582 49l5 13l-2 3h-5l-14 3l6 -10
l10 -11v2v0zM606 35l36 77l19 49h-9l-15 -33l-22 -41v-10l-7 -5l-15 -29v-8h2l3 -2l8 2v0zM656 123l-11 -21h4l7 21v0zM880 3v1l-18 29l-97 25v2l4 2l40 -10l47 -9l6 -4l4 4l44 17l-2 2l-36 10l-128 32l-80 19l-12 -27l34 -12l79 -22v-2l-2 -2l-114 29l-7 -14l40 -13
l198 -57v0zM888 4l101 11l-12 9l-57 34l-48 -19l5 -21l11 -14v0zM2 295h7l1 4l-8 -11l7 -81l1 -14v-11l-8 67l-1 31l1 15v0zM277 419l3 -3l-4 -27l1 -2h3v-4l-8 4l-6 11l11 21v0zM362 368l19 51l-16 -51h-3v0zM291 380h7l-21 -7l14 7v0zM305 380l-3 -1l-4 1h7v0zM288 362
l3 -4l-5 4h2v0z" />
    <glyph glyph-name="ampersand" unicode="&#x26;" horiz-adv-x="769" 
d="M471 308l281 0.00195312l-115 -71c-6 -30 -14 -60.667 -24 -92c-8.66699 -26.667 -19.667 -55.834 -33 -87.501s-29.666 -61.834 -48.999 -90.501l38 -66l140 -66h-233l-25 48c-26 -17.333 -55.667 -31.333 -89 -42s-71 -16.667 -113 -18c-45.333 -1.33301 -84 6 -116 22
s-58 36.167 -78 60.5s-34.333 51 -43 80s-12 55.5 -10 79.5c1.33301 16.667 4.5 35.667 9.5 57s14.667 43.333 29 66s35 45.5 62 68.5s63.167 44.833 108.5 65.5l-10 20c-12.667 22.667 -23.334 46 -32.001 70c-8 20 -14.833 42.167 -20.5 66.5
s-7.83398 47.833 -6.50098 70.5c1.33301 22 7.33301 43 18 63s24.834 37.333 42.501 52s38.834 26.167 63.501 34.5s51.667 12.5 81 12.5c36 0 65.167 -5.66699 87.5 -17s39.666 -25.666 51.999 -42.999s20.833 -36.833 25.5 -58.5s7 -42.834 7 -63.501
c0 -24 -5.33301 -47 -16 -69s-24.167 -42.5 -40.5 -61.5s-34.666 -36.333 -54.999 -52s-39.833 -29.167 -58.5 -40.5l149 -280c7.33301 12 15.166 25.833 23.499 41.5s16 32.5 23 50.5s12.5 37.167 16.5 57.5s5.66699 40.833 5 61.5zM286 -103.998
c14 0 26.8301 1.49902 38.4971 4.49902s22.667 6.66699 33 11s20.5 9.33301 30.5 15l31 17.5l-176 321c-15.333 -7.33301 -30.666 -16.333 -45.999 -27s-29.166 -23 -41.499 -37s-22.666 -30.167 -30.999 -48.5s-13.5 -38.833 -15.5 -61.5c-2 -21.333 0 -43.333 6 -66
s16.167 -43.667 30.5 -63s33 -35.166 56 -47.499s51.167 -18.5 84.5 -18.5zM260.997 540.001c0 -13.333 1.83398 -27.3359 5.50098 -42.0029s8 -29.167 13 -43.5s10.333 -28.166 16 -41.499s11.167 -25.333 16.5 -36l9 -15c40.667 26.667 72.334 52.834 95.001 78.501
s34 56.834 34 93.501c0 22.667 -2.83301 41.167 -8.5 55.5s-13 25.5 -22 33.5s-19.333 13.5 -31 16.5s-23.834 4.5 -36.501 4.5c-19.333 -0.666992 -34.833 -4.5 -46.5 -11.5s-20.834 -15.5 -27.501 -25.5s-11.167 -21 -13.5 -33s-3.5 -23.333 -3.5 -34zM500.998 -91.002
l-86 214l-46 28l-3 -55zM355.998 230.998l-42 23l-9 -48l43 -21zM206.998 587.998c-6 -8.66699 -10.167 -18.833 -12.5 -30.5s-3.5 -24 -3.5 -37s0.666992 -26.167 2 -39.5s3 -26 5 -38c3.33301 -18.667 9.5 -37.834 18.5 -57.501s19.5 -41.167 31.5 -64.5l46 -31l5 56
c-7.33301 7.33301 -14.666 16 -21.999 26c-6.66699 8.66699 -13.834 19 -21.501 31s-14.834 25.667 -21.501 41c-1.33301 2.66699 -3.66602 8.33398 -6.99902 17.001s-6.83301 19.5 -10.5 32.5s-6.5 27.5 -8.5 43.5s-2.33301 33 -1 51zM52.998 139.999l-26 -74l28 -80l32 80
z" />
    <glyph glyph-name="quotesingle" unicode="'" horiz-adv-x="93" 
d="M71 702l-21 -173h-34l-16 173h71z" />
    <glyph glyph-name="parenleft" unicode="(" horiz-adv-x="296" 
d="M283 736c-15.333 -12.667 -30.665 -27.334 -45.998 -44.001c-13.333 -14 -27.333 -30.833 -42 -50.5s-28 -42.167 -40 -67.5c-16.667 -34 -30.5 -74.667 -41.5 -122s-16.833 -101.333 -17.5 -162c-1.33301 -63.333 3.33398 -120.833 14.001 -172.5s24 -97.167 40 -136.5
c12 -34 25.667 -62.833 41 -86.5s29.666 -43.167 42.999 -58.5c16 -18 31.667 -33.333 47 -46l-15 -25c-18.667 14.667 -38 31 -58 49c-17.333 15.333 -36 34 -56 56s-39.333 46.667 -58 74c-28.667 42 -51.5 88.5 -68.5 139.5s-25.5 111.833 -25.5 182.5
c0 42 3.5 81 10.5 117s16.5 69.167 28.5 99.5s25.667 58 41 83s31.333 47.167 48 66.5c16.667 20.667 33.167 38.834 49.5 54.501s31.166 28.667 44.499 39s24.166 18.333 32.499 24l12.5 8.5z" />
    <glyph glyph-name="parenright" unicode=")" horiz-adv-x="303" 
d="M15 758l12.5 -8.5c8.33301 -5.66699 19.166 -13.667 32.499 -24s28.166 -23.333 44.499 -39s32.833 -33.834 49.5 -54.501c16.667 -19.333 32.667 -41.5 48 -66.5s29 -52.667 41 -83s21.5 -63.5 28.5 -99.5s10.5 -75 10.5 -117c0 -70.667 -8.5 -131.5 -25.5 -182.5
s-39.833 -97.5 -68.5 -139.5c-18.667 -27.333 -38 -52 -58 -74s-38.667 -40.667 -56 -56c-20 -18 -39.333 -34.333 -58 -49l-15 25c15.333 12.667 31 28 47 46c13.333 15.333 27.5 34.833 42.5 58.5s28.833 52.5 41.5 86.5c16 39.333 29.333 84.833 40 136.5
s15.334 109.167 14.001 172.5c-0.666992 60.667 -6.5 114.667 -17.5 162s-24.833 88 -41.5 122c-12 25.333 -25.333 47.833 -40 67.5s-28.667 36.5 -42 50.5c-15.333 16.667 -30.666 31.334 -45.999 44.001z" />
    <glyph glyph-name="asterisk" unicode="*" horiz-adv-x="812" 
d="M0 0l406 702l389 -702h-795zM203 346l199 -342l198 342h-397z" />
    <glyph glyph-name="plus" unicode="+" horiz-adv-x="547" 
d="M50 304v52h198v195h52v-195h195v-52h-195v-201h-52v201h-198v0z" />
    <glyph glyph-name="comma" unicode="," horiz-adv-x="172" 
d="M40 86h83v-86c-0.666992 -21.333 -4.5 -39 -11.5 -53s-14.833 -25.333 -23.5 -34c-10 -10 -21.667 -18 -35 -24l-13 16c8 6 15 13.667 21 23c5.33301 7.33301 10 17 14 29s5.33301 26.333 4 43h-39v86z" />
    <glyph glyph-name="hyphen" unicode="-" horiz-adv-x="346" 
d="M58 292l249 -1v-81h-249v82z" />
    <glyph glyph-name="period" unicode="." horiz-adv-x="170" 
d="M40 86h83v-86h-83v86z" />
    <glyph glyph-name="slash" unicode="/" horiz-adv-x="416" 
d="M352 701h47l-351 -866h-47z" />
    <glyph glyph-name="zero" unicode="0" horiz-adv-x="593" 
d="M512 532c17.333 -36 30.502 -77.166 39.502 -123.499s13.5 -94.833 13.5 -145.5c0 -29.333 -1.83301 -58.833 -5.5 -88.5s-9 -58.5 -16 -86.5s-15.333 -54.333 -25 -79s-20.5 -46.667 -32.5 -66c-25.333 -40.667 -55.5 -69.334 -90.5 -86.001s-72.5 -25 -112.5 -25
s-79 10.5 -117 31.5s-70 51.5 -96 91.5c-26.667 38.667 -45 85 -55 139s-15 110.333 -15 169c0 53.333 4.16699 103.833 12.5 151.5s23.166 90.5 44.499 128.5c26 48 59 86 99 114s82.333 42 127 42c46.667 0 89.667 -14.833 129 -44.5s72.666 -70.5 99.999 -122.5z
M281.002 -117.999c20 0 39.499 10 58.499 30s36 47.333 51 82s27 75.167 36 121.5s13.5 95.5 13.5 147.5c0 52.667 -4.66699 102.834 -14 150.501s-21.5 89.167 -36.5 124.5s-32 63.5 -51 84.5s-38.5 31.5 -58.5 31.5c-19.333 0 -38.666 -10.5 -57.999 -31.5
s-36.666 -49.167 -51.999 -84.5s-27.666 -76.833 -36.999 -124.5s-14 -97.834 -14 -150.501c0 -52 4.83301 -101.167 14.5 -147.5s22.167 -86.833 37.5 -121.5s32.666 -62 51.999 -82s38.666 -30 57.999 -30zM182.001 628.001c-23.333 -14 -41.832 -29.999 -55.499 -47.999
l-36.5 -49c-4 -6 -8.5 -13.5 -13.5 -22.5s-9.83301 -18.833 -14.5 -29.5s-8.66699 -21.167 -12 -31.5s-5.33301 -19.833 -6 -28.5l26 -48l31 48c2.66699 22 5.16699 41.167 7.5 57.5s5.5 30.166 9.5 41.499c2.66699 8 6.16699 17 10.5 27s9.33301 20 15 30
s11.667 19.667 18 29s13.166 17.333 20.499 24zM35.002 286.002l27 -39l29 39l-29 38zM194.002 -112.998c-7.33301 6.66699 -15.332 15.502 -23.999 26.502s-17 23.167 -25 36.5s-15.333 27 -22 41s-11.334 27 -14.001 39c-4.66699 20.667 -8 41.167 -10 61.5
s-3 39.166 -3 56.499l-31 48l-26 -48c2 -17.333 6.16699 -37.833 12.5 -61.5s14.833 -45.834 25.5 -66.501c16.667 -32.667 34.5 -59.5 53.5 -80.5s40.167 -38.5 63.5 -52.5zM379.003 628.004c6.66699 -6.66699 13.332 -14.668 19.999 -24.001s12.834 -19 18.501 -29
s10.667 -20 15 -30s7.83301 -19 10.5 -27c4 -11.333 7.16699 -25.166 9.5 -41.499s4.83301 -35.5 7.5 -57.5l31 -48l26 48c-1.33301 8.66699 -3.5 18.167 -6.5 28.5s-6.83301 20.833 -11.5 31.5s-9.5 20.5 -14.5 29.5s-9.5 16.5 -13.5 22.5l-36.5 49
c-13.667 18 -32.167 34 -55.5 48zM499.001 324.003l-29 -38l29 -39l27 39zM367.001 -112.997c23.333 14 44.501 31.498 63.501 52.498s36.833 47.833 53.5 80.5c10.667 20.667 19.167 42.834 25.5 66.501s10.5 44.167 12.5 61.5l-26 48l-31 -48
c0 -17.333 -1 -36.166 -3 -56.499s-5.33301 -40.833 -10 -61.5c-2.66699 -12 -7.33398 -25 -14.001 -39s-14 -27.667 -22 -41s-16.5 -25.5 -25.5 -36.5s-16.833 -19.833 -23.5 -26.5z" />
    <glyph glyph-name="one" unicode="1" horiz-adv-x="500" 
d="M2 522l189 177h85v-778l137 -86h-388l134 80v654zM191 138l29 -237l30 237l-29 47zM189 382l30 -48l31 48l-30 231zM219 300l-29 -38l29 -39l31 39z" />
    <glyph glyph-name="two" unicode="2" horiz-adv-x="599" 
d="M82 640c12.667 13.333 28.666 25.3311 47.999 35.998c16.667 9.33301 38 17.666 64 24.999s58 11.666 96 12.999c41.333 0.666992 75 -6.5 101 -21.5s46.5 -34 61.5 -57s25.333 -48.167 31 -75.5s9.16699 -53.333 10.5 -78c1.33301 -36 -2.33398 -70 -11.001 -102
s-19.167 -61 -31.5 -87s-25 -48.333 -38 -67s-22.833 -32.334 -29.5 -41.001l-71 -93l-61 -77l-60 -73h240l148 107l-85 -213h-483c16.667 14.667 36.334 34.334 59.001 59.001l71.5 81.5c28.333 33 61.166 73.833 98.499 122.5c32.667 42 58.5 80.833 77.5 116.5
s33.5 67.667 43.5 96s16.667 52.833 20 73.5s5 37 5 49c0.666992 18.667 -0.666016 38.167 -3.99902 58.5s-9.16602 39.333 -17.499 57s-20 32.334 -35 44.001s-33.833 17.834 -56.5 18.501c-16.667 0.666992 -31 -0.666016 -43 -3.99902s-21.667 -6.66602 -29 -9.99902
c-9.33301 -4.66699 -17 -9.66699 -23 -15l-92 -83l-33.5 -31l-28.5 -26.5l-19.5 -18.5c-5 -4.66699 -7.16699 -7 -6.5 -7s3.16699 5.33301 7.5 16s9.5 24.167 15.5 40.5l19.5 53.5l19.5 53.5l15 41.5c4 11.333 6 17.333 6 18zM184.999 -82.002l-60 -30l60 -29l250 30z
M211.999 654.998c24 1.33301 47.665 1.16699 70.998 -0.5s44 -8.5 62 -20.5c14.667 -9.33301 25.667 -21 33 -35s15 -30 23 -48l46 -32l3 50c-4.66699 10 -10.667 20 -18 30s-15.166 19.167 -23.499 27.5s-16.666 15.5 -24.999 21.5s-15.833 10.333 -22.5 13
c-17.333 6 -39 9.5 -65 10.5s-54 -4.5 -84 -16.5zM441.997 478.999l-29 -38l29 -39l31 39z" />
    <glyph glyph-name="three" unicode="3" horiz-adv-x="545" 
d="M56 609c12 17.333 27.6709 33.0029 47.0039 47.0029c16.667 12 37.667 23.167 63 33.5s57 16.166 95 17.499c37.333 1.33301 70.166 -2.83398 98.499 -12.501s51.833 -23.167 70.5 -40.5s32.667 -37.5 42 -60.5s13.666 -47.5 12.999 -73.5
c-1.33301 -44 -9.66602 -79.667 -24.999 -107s-32 -48.666 -50 -63.999c-21.333 -18 -45.333 -31.667 -72 -41c32.667 -10 62 -25 88 -45c10.667 -8.66699 21.334 -18.667 32.001 -30s20 -24.333 28 -39s14.333 -31.334 19 -50.001s7 -39.334 7 -62.001
c-0.666992 -52.667 -9.33398 -95.5 -26.001 -128.5s-37.334 -59 -62.001 -78s-51.5 -31.833 -80.5 -38.5s-56.5 -9.66699 -82.5 -9c-34 0.666992 -63.167 3.16699 -87.5 7.5s-45.166 9.16602 -62.499 14.499c-20 6 -37 13 -51 21l-59 172l156 -135
c9.33301 -2.66699 19.666 -5.33398 30.999 -8.00098c9.33301 -2 20 -3.83301 32 -5.5s24.667 -2.16699 38 -1.5c13.333 0 28.166 3.83301 44.499 11.5s31.666 18.834 45.999 33.501s26.333 33.167 36 55.5s14.5 48.5 14.5 78.5c0 28.667 -3.33301 53.667 -10 75
s-15.5 39.5 -26.5 54.5s-23.5 27.333 -37.5 37s-28.333 17.167 -43 22.5c-34.667 12.667 -73.667 17.334 -117 14.001c2 8.66699 4.33301 16.667 7 24c1.33301 3.33301 2.33301 6.33301 3 9l2 8l2 8c12 0 28.167 1.5 48.5 4.5s40.666 10.333 60.999 22s38.333 28.667 54 51
s25.167 52.833 28.5 91.5c2.66699 20 1.66699 38.833 -3 56.5s-12 33.334 -22 47.001s-22.167 24.834 -36.5 33.501s-29.833 14 -46.5 16c-21.333 1.33301 -38.166 0.666016 -50.499 -2.00098s-21.833 -6 -28.5 -10c-7.33301 -4.66699 -12.333 -10.334 -15 -17.001
l-162 -178zM425.004 588.003l-26 -74l28 -80l32 80zM452.004 152.003l-26 -74l28 -80l32 80z" />
    <glyph glyph-name="four" unicode="4" horiz-adv-x="636" 
d="M484 700l-0.000976562 -577h84l-3.5 -11c-2.33301 -7.33301 -5.16602 -15.5 -8.49902 -24.5s-6.5 -17.167 -9.5 -24.5s-4.83301 -11 -5.5 -11h-57v-147l121 -70h-370l134 72v145h-368v57l374 591h109zM91.999 124h277v448zM400.999 138l29 -237l30 237l-29 47z
M398.999 382l30 -48l31 48l-30 231zM428.999 300l-29 -38l29 -39l31 39z" />
    <glyph glyph-name="five" unicode="5" horiz-adv-x="556" 
d="M435 700l91.001 -229.001l-171 125h-267v-244c10.667 12.667 24.334 24.334 41.001 35.001c13.333 9.33301 30.5 17.5 51.5 24.5s45.5 10.5 73.5 10.5c44 0 82.833 -8.33301 116.5 -25s62 -38.167 85 -64.5s40.667 -56 53 -89s19.5 -66.167 21.5 -99.5
c3.33301 -56 -1.83398 -103.833 -15.501 -143.5s-32.167 -72.167 -55.5 -97.5s-49.833 -44 -79.5 -56s-58.5 -18.333 -86.5 -19c-41.333 -1.33301 -77 0.333984 -107 5.00098s-55 10 -75 16c-23.333 7.33301 -43.333 15.666 -60 24.999l-51 177l158 -146
c8 -5.33301 17.333 -9.66602 28 -12.999c9.33301 -3.33301 20.166 -6.16602 32.499 -8.49902s26.5 -2.83301 42.5 -1.5c22 1.33301 42.5 6.83301 61.5 16.5s35.5 23.667 49.5 42s25.167 41 33.5 68s12.833 59.167 13.5 96.5c0.666992 46 -4 85 -14 117
s-23.5 58.167 -40.5 78.5s-36.667 35.166 -59 44.499s-45.166 14 -68.499 14c-26 0 -48.667 -5.66699 -68 -17s-35.5 -24 -48.5 -38s-22.833 -26.833 -29.5 -38.5s-10.334 -17.5 -11.001 -17.5c-5.33301 7.33301 -11.333 12.666 -18 15.999s-13 6 -19 8
c-7.33301 2 -14.333 3.33301 -21 4v424h413zM469.001 210.999l-26 -74l28 -80l32 80zM136.001 677.999l-48 -30l48 -29l249 30z" />
    <glyph glyph-name="six" unicode="6" horiz-adv-x="620" 
d="M359 481l52.002 123.001c-6 8.66699 -13 16.334 -21 23.001c-7.33301 5.33301 -16.666 10.333 -27.999 15s-25.666 7.33398 -42.999 8.00098c-17.333 0 -36.333 -4.16699 -57 -12.5s-40 -24 -58 -47s-32.833 -54.667 -44.5 -95s-16.834 -92.5 -15.501 -156.5
c-0.666992 -0.666992 1.33301 1 6 5s11.667 9.16699 21 15.5s20.333 13.333 33 21s26.5 14.667 41.5 21s31 11.5 48 15.5s34.5 5.66699 52.5 5c30.667 -1.33301 61 -8.66602 91 -21.999s56.667 -32 80 -56s42.166 -53 56.499 -87s21.5 -72 21.5 -114
c0 -47.333 -7.33301 -90.666 -22 -129.999s-34.667 -73 -60 -101s-54.833 -49.833 -88.5 -65.5s-69.834 -22.834 -108.501 -21.501c-38 0.666992 -75.833 8.66699 -113.5 24s-71.5 40.5 -101.5 75.5s-54.167 81.167 -72.5 138.5s-27.5 128.666 -27.5 213.999
c0 58.667 7.16699 114.167 21.5 166.5s35 98 62 137s60 70.167 99 93.5s83.167 36 132.5 38c30.667 0.666992 57.667 -2.33301 81 -9s43.333 -15.834 60 -27.501s30.667 -24.834 42 -39.501s20.666 -29.334 27.999 -44.001zM144.002 118.001
c0 -30.667 4.8291 -60.333 14.4961 -89s22.5 -54.167 38.5 -76.5s33.833 -40.166 53.5 -53.499s39.5 -20 59.5 -20c20.667 0 41 6.66699 61 20s38 31.166 54 53.499s28.833 48 38.5 77s14.5 58.833 14.5 89.5s-5.16699 60.5 -15.5 89.5s-23.666 54.833 -39.999 77.5
s-34.666 41 -54.999 55s-40.5 21 -60.5 21c-20.667 0 -40.667 -7 -60 -21s-36.666 -32.5 -51.999 -55.5s-27.666 -49.167 -36.999 -78.5s-14 -59 -14 -89zM213.998 645.002c-14 -7.33301 -27.001 -15.6719 -39.001 -25.0049s-23.167 -19.166 -33.5 -29.499
s-19.5 -20.333 -27.5 -30s-14.333 -18.5 -19 -26.5c-4 -6 -8.5 -14.167 -13.5 -24.5s-9.66699 -21.333 -14 -33s-8.33301 -23.167 -12 -34.5s-6.16699 -21.333 -7.5 -30l23 -48l37 48c1.33301 10.667 2.16602 19.834 2.49902 27.501s0.833008 15.334 1.5 23.001
s1.83398 15.834 3.50098 24.501s4.83398 20 9.50098 34c2.66699 8 7.33398 17.667 14.001 29s14.167 23 22.5 35s17.166 23.333 26.499 34s18 19.334 26 26.001zM30.9971 280.996l31 -40l31 40l-31 38zM202.997 -113.004c-16.667 13.333 -32.998 33.332 -48.998 59.999
s-29.667 53.667 -41 81c-7.33301 19.333 -10.833 39 -10.5 59s0.5 38.667 0.5 56l-35 48l-26 -48c1.33301 -8.66699 3.33301 -19 6 -31s6.16699 -24.5 10.5 -37.5s9.16602 -26 14.499 -39s11.333 -24.5 18 -34.5c14.667 -23.333 30.167 -44.666 46.5 -63.999
s38.166 -36 65.499 -50zM529.999 212.995l-31 -74l33 -80l38 80z" />
    <glyph glyph-name="seven" unicode="7" horiz-adv-x="676" 
d="M24 -164l466 808h-320l-170 -154l85 210h564l-492 -866zM379 398l-3 -55l52 23l99 240zM312 282l2 -50l45 17v51zM134 -83l156 215l-3 54l-44 -22z" />
    <glyph glyph-name="eight" unicode="8" horiz-adv-x="602" 
d="M-3 77c0 25.333 3.49902 49.8291 10.499 73.4961s17.667 45.334 32 65.001s32.666 36.834 54.999 51.501s49.166 25.667 80.499 33c-42.667 14.667 -76.667 38.334 -102 71.001s-38 72.667 -38 120c0 32 5.16699 61.333 15.5 88s26 49.834 47 69.501
s47.5 35.167 79.5 46.5s69.667 17.333 113 18c34.667 0.666992 67.334 -3.66602 98.001 -12.999s57.334 -23.166 80.001 -41.499s40.667 -41.5 54 -69.5s20 -60.667 20 -98c0 -46.667 -12 -86.5 -36 -119.5s-55.667 -57.167 -95 -72.5
c26 -7.33301 49.667 -18.166 71 -32.499s39.333 -31.333 54 -51s26 -41.334 34 -65.001s12 -48.167 12 -73.5c0 -35.333 -6.83301 -68.166 -20.5 -98.499s-33.167 -56.833 -58.5 -79.5s-56 -40.5 -92 -53.5s-76.333 -19.5 -121 -19.5c-47.333 0 -89.166 6.66699 -125.499 20
s-67 31.166 -92 53.499s-43.833 48.666 -56.5 78.999s-19 63.166 -19 98.499zM106.999 72.9961c0 -29.333 5.50098 -56.668 16.501 -82.001s25.167 -47 42.5 -65s37.166 -31.833 59.499 -41.5s44.5 -13.834 66.5 -12.501c22 0.666992 43.5 6.66699 64.5 18s40 26.333 57 45
s30.667 39.834 41 63.501s15.5 48.5 15.5 74.5s-5.16699 50.833 -15.5 74.5s-24 44.167 -41 61.5s-36 31.166 -57 41.499s-42.5 15.5 -64.5 15.5c-23.333 0 -46 -5 -68 -15s-41.667 -23.667 -59 -41s-31.333 -37.666 -42 -60.999s-16 -48.666 -16 -75.999zM144 485.994
c0 -22 3.5 -43 10.5 -63s17 -37.5 30 -52.5s28.667 -26.667 47 -35s38.5 -12.5 60.5 -12.5c20 0 38.833 4.33301 56.5 13s32.834 20.5 45.501 35.5s22.667 32.333 30 52s11 40.5 11 62.5c0 22.667 -3.66699 44.5 -11 65.5s-17.5 39.667 -30.5 56s-28.167 29.5 -45.5 39.5
s-36.333 15 -57 15c-22.667 0 -43.167 -5 -61.5 -15s-33.833 -23.167 -46.5 -39.5s-22.334 -35 -29.001 -56s-10 -42.833 -10 -65.5zM521 151.994l-26 -74l28 -80l32 80zM51 151.994l-31 -74l33 -80l32 80zM485 566.994l-26 -74l28 -80l32 80zM85 568.994l-26 -74l28 -80
l32 80z" />
    <glyph glyph-name="nine" unicode="9" horiz-adv-x="620" 
d="M156 55l-52.0029 -123.001c8.66699 -10.667 20 -20 34 -28c12 -7.33301 27.5 -13.833 46.5 -19.5s42.5 -7.83398 70.5 -6.50098c20.667 0.666992 42.5 5.66699 65.5 15s44.333 25.833 64 49.5s35.667 56 48 97s18.166 93.5 17.499 157.5
c0.666992 0.666992 -4.33301 -3.33301 -15 -12s-25.5 -18.5 -44.5 -29.5s-40.833 -21 -65.5 -30s-50.334 -12.833 -77.001 -11.5c-31.333 0.666992 -61.833 7.83398 -91.5 21.501s-56.167 32.5 -79.5 56.5s-42.166 53 -56.499 87s-21.5 72 -21.5 114
c0 46.667 7.33301 89.834 22 129.501s34.667 73.5 60 101.5s54.833 49.667 88.5 65s69.834 22.666 108.501 21.999c38 -0.666992 75.667 -8.66699 113 -24s71 -40.5 101 -75.5s54.333 -81.333 73 -139s28 -128.834 28 -213.501c0 -59.333 -8.16699 -115 -24.5 -167
s-39.166 -97.5 -68.499 -136.5s-64.333 -70.167 -105 -93.5s-85.667 -36 -135 -38c-31.333 -1.33301 -61.666 1.5 -90.999 8.5s-56.166 16.333 -80.499 28s-45.333 24.834 -63 39.501s-30.167 29.334 -37.5 44.001zM449.997 417.999c0 30.667 -4.8291 60.333 -14.4961 89
s-22.5 54.167 -38.5 76.5s-33.833 40.166 -53.5 53.499s-39.5 20 -59.5 20c-20.667 0 -41 -6.66699 -61 -20s-38 -31.166 -54 -53.499s-28.833 -48 -38.5 -77s-14.5 -58.833 -14.5 -89.5s5.16699 -60.5 15.5 -89.5s23.666 -54.833 39.999 -77.5s34.666 -41 54.999 -55
s40.5 -21 60.5 -21c20.667 0 40.667 7 60 21s36.666 32.5 51.999 55.5s27.666 49.167 36.999 78.5s14 59 14 89zM380.001 -109.002c14 6.66699 27.001 14.834 39.001 24.501s23.167 19.667 33.5 30s19.333 20.333 27 30s14.167 18.5 19.5 26.5c4 6 8.5 14.167 13.5 24.5
s9.66699 21.333 14 33s8.33301 23.167 12 34.5s6.16699 21.333 7.5 30l-23 48l-37 -48c-1.33301 -11.333 -2.16602 -20.666 -2.49902 -27.999s-0.833008 -14.833 -1.5 -22.5s-1.83398 -15.834 -3.50098 -24.501s-4.83398 -20 -9.50098 -34
c-2.66699 -8 -7.33398 -17.667 -14.001 -29s-14.167 -23 -22.5 -35s-17.166 -23.333 -26.499 -34s-18 -19.334 -26 -26.001zM563.002 254.998l-31 40l-31 -40l31 -38zM391.002 648.998c16.667 -13.333 32.998 -33.332 48.998 -59.999s29.667 -53.667 41 -81
c7.33301 -19.333 10.833 -39 10.5 -59s-0.5 -38.667 -0.5 -56l35 -48l26 48c-1.33301 8.66699 -3.33301 19 -6 31s-6.16699 24.5 -10.5 37.5s-9.16602 26 -14.499 39s-11.333 24.5 -18 34.5c-14.667 23.333 -30.167 44.666 -46.5 63.999s-38.166 36 -65.499 50zM64 322.999
l31 74l-33 80l-38 -80z" />
    <glyph glyph-name="colon" unicode=":" horiz-adv-x="185" 
d="M48 86h83v-86h-83v86zM48 461h83v-86h-83v86z" />
    <glyph glyph-name="semicolon" unicode=";" horiz-adv-x="174" 
d="M42 86h83v-86c-0.666992 -21.333 -4.5 -39 -11.5 -53s-14.833 -25.333 -23.5 -34c-10 -10 -21.667 -18 -35 -24l-13 16c8 6 15 13.667 21 23c5.33301 7.33301 10 17 14 29s5.33301 26.333 4 43h-39v86zM42 460h83v-86h-83v86z" />
    <glyph glyph-name="less" unicode="&#x3c;" horiz-adv-x="584" 
d="M527 489l-409 -164l409 -166v-55l-466 194v53l466 191v-53z" />
    <glyph glyph-name="equal" unicode="=" horiz-adv-x="529" 
d="M58 292h431v-47h-431v47zM58 459h431v-47h-431v47z" />
    <glyph glyph-name="greater" unicode="&#x3e;" horiz-adv-x="586" 
d="M59 542l466 -191v-53l-466 -194v55l409 166l-409 164v53z" />
    <glyph glyph-name="question" unicode="?" horiz-adv-x="529" 
d="M59 660c9.33301 10.667 23.6641 19.666 42.9971 26.999c16.667 6.66699 39 12.667 67 18s64 8 108 8c44.667 -0.666992 81.167 -8.5 109.5 -23.5s50.833 -32.667 67.5 -53s28.5 -41.166 35.5 -62.499s11.167 -39 12.5 -53c2 -20 0.166992 -40.667 -5.5 -62
s-14.667 -42.5 -27 -63.5s-28.166 -40.833 -47.499 -59.5s-41.666 -35.334 -66.999 -50.001c-51.333 -30 -92.166 -58.5 -122.499 -85.5s-45.833 -49.167 -46.5 -66.5c-0.666992 -8.66699 0.333008 -16.334 3 -23.001s5.66699 -12.667 9 -18
c3.33301 -6 7.66602 -11.667 12.999 -17l-32 -21l-22 -14.5c-6.66699 -4.33301 -10 -6.16602 -10 -5.49902c-18 19.333 -29.667 38.833 -35 58.5s-4 40.167 4 61.5s23 44.333 45 69s51.667 51.667 89 81c32.667 26 58.167 47.5 76.5 64.5s32 32.5 41 46.5s15 28 18 42
s5.16699 31 6.5 51c0.666992 14 -2 29.833 -8 47.5s-15 34.334 -27 50.001s-26.667 28.834 -44 39.501s-36.666 15.667 -57.999 15c-21.333 -1.33301 -39 -3.83301 -53 -7.5s-25 -7.83398 -33 -12.501c-9.33301 -5.33301 -16.333 -11 -21 -17l-152 -146zM147.998 -23.001
h102v-143h-102v143zM442.998 592.999l-26 -74l28 -80l32 80z" />
    <glyph glyph-name="at" unicode="@" horiz-adv-x="721" 
d="M119 -105c-15.333 -17.333 -32.666 -33.333 -51.999 -48s-40.333 -25.334 -63 -32.001c-1.33301 22 3 44 13 66s20.667 42.667 32 62l185 232l53 64l130 162c3.33301 4.66699 8 7.5 14 8.5s11.333 3.16699 16 6.5c16.667 14.667 31.667 30.334 45 47.001l39 51
c-9.33301 1.33301 -15.166 6.33301 -17.499 15s-5.83301 16.667 -10.5 24c-7.33301 -0.666992 -14.166 -3.66699 -20.499 -9s-10.166 -7.66602 -11.499 -6.99902l-34 31c6 6 12.5 9.83301 19.5 11.5s14.333 2.5 22 2.5s15.5 -0.666992 23.5 -2s15.667 -2 23 -2l32 -31l10 16
c1.33301 -3.33301 3.16602 -4.5 5.49902 -3.5s4.16602 1.16699 5.49902 0.5l49.5 61c15.667 19.333 31.5 41 47.5 65c3.33301 0.666992 7 2.16699 11 4.5s7 4.83301 9 7.5c4 1.33301 7.5 1 10.5 -1s4.83301 -5 5.5 -9c-5.33301 -1.33301 -7.66602 -5 -6.99902 -11
s-0.333008 -11 -3 -15h-6l-89 -109v-6c-1.33301 0.666992 -2.16602 0.666992 -2.49902 0s-0.833008 -1.33398 -1.5 -2.00098c5.33301 -11.333 1.66602 -19.333 -11.001 -24l39 -27c5.33301 -13.333 10 -27.5 14 -42.5s3.33301 -30.167 -2 -45.5
c-0.666992 0.666992 -5.33398 3.66699 -14.001 9s-17 11.333 -25 18c1.33301 5.33301 3 10.666 5 15.999s2.33301 11.333 1 18c-3.33301 2.66699 -7.33301 4.16699 -12 4.5l-14 1c-4.66699 0.333008 -8.83398 1.5 -12.501 3.5s-5.83398 5.66699 -6.50098 11
c-7.33301 -11.333 -15.833 -22.166 -25.5 -32.499s-18.667 -20.833 -27 -31.5s-15.333 -22 -21 -34s-8.5 -25.333 -8.5 -40l-81 -102l-282 -352v0zM119 15c-10 -13.333 -20.832 -26.3301 -32.499 -38.9971s-22 -25.334 -31 -38.001s-15.333 -25.334 -19 -38.001
s-2.16699 -25.334 4.5 -38.001c10 0.666992 19.5 2.5 28.5 5.5s17.5 7.16699 25.5 12.5l306 380l75 95c2 1.33301 3.16699 3.83301 3.5 7.5s0.166016 6.16699 -0.500977 7.5c0 10.667 4 22.167 12 34.5s16.833 24.333 26.5 36l28 33c9 10.333 14.833 19.166 17.5 26.499
l-19 -7c-4 3.33301 -4.5 6.5 -1.5 9.5s3.5 6.83301 1.5 11.5l-52 -65c-12 -12 -22.333 -21.333 -31 -28s-15.667 -11.5 -21 -14.5s-9.5 -5.16699 -12.5 -6.5s-4.83301 -2.66602 -5.5 -3.99902l-303 -381v0z" />
    <glyph glyph-name="A" unicode="A" horiz-adv-x="798" 
d="M456 -165l94 74l-75 329h-198l-87 -334l101 -69h-292l120 71l200 723l-149 71h305l208 -791l115 -74h-342zM462 294l-79 323l-88 -323h167zM531 140l83 -224l-28 238l-38 39zM471 376l41 -39l16 53l-85 217zM520 304l-19 -44l37 -31l17 44z" />
    <glyph glyph-name="B" unicode="B" horiz-adv-x="647" 
d="M379 281c44.667 -3.33301 84.6729 -13.3369 120.006 -30.0039c14.667 -7.33301 29.167 -16.166 43.5 -26.499s26.833 -22.666 37.5 -36.999s19.167 -31.333 25.5 -51s9.16602 -41.834 8.49902 -66.501c-1.33301 -36 -7.33301 -67 -18 -93s-26 -48.333 -46 -67
c-21.333 -19.333 -48 -34.166 -80 -44.499s-63.333 -17.833 -94 -22.5c-36 -5.33301 -73 -8 -111 -8h-265l125 66v728l-118 71h312c9.33301 0 21.666 -1 36.999 -3s31.666 -5.66699 48.999 -11s34.666 -12.666 51.999 -21.999s33.333 -21.666 48 -36.999s26.667 -34 36 -56
s14.666 -48.333 15.999 -79c0.666992 -23.333 -1.33301 -44 -6 -62s-11 -34.167 -19 -48.5s-17.333 -26.833 -28 -37.5s-21.667 -19.667 -33 -27c-26.667 -17.333 -57.334 -29.333 -92.001 -36zM243.006 312.996c41.333 -1.33301 77.999 3.99902 109.999 15.999
c14 4.66699 27.333 11.167 40 19.5s24 18.833 34 31.5s17.667 27.834 23 45.501s7.66602 38.5 6.99902 62.5c-1.33301 20.667 -5.16602 38.667 -11.499 54s-14.666 28.666 -24.999 39.999s-21.833 20.833 -34.5 28.5s-25.667 13.834 -39 18.501
c-31.333 11.333 -66 17 -104 17v-333zM505.005 78.9951c-2.66699 34 -13.333 62.501 -32 85.501s-42 43.5 -70 61.5c-14 8 -30.167 13.5 -48.5 16.5s-36.166 4.83301 -53.499 5.5c-20 0.666992 -40.333 0 -61 -2v-353c20 -0.666992 40 0 60 2
c17.333 1.33301 35.166 3.5 53.499 6.5s34.5 8.16699 48.5 15.5c14.667 7.33301 28.667 15.666 42 24.999s24.833 20.333 34.5 33s17 27.167 22 43.5s6.5 35.5 4.5 57.5v3zM156.006 144.996l26 -237l31 237l-28 47zM154.006 388.996l30 -48l29 48l-30 231zM184.006 306.996
l-29 -38l29 -39l27 39zM501.006 560.996l-26 -74l28 -80l32 80zM553.006 157.996l-26 -86l28 -97l32 97z" />
    <glyph glyph-name="C" unicode="C" horiz-adv-x="635" 
d="M608 47l-60.001 -162.996c-14.667 -10 -32.667 -19 -54 -27c-18 -7.33301 -40.167 -13.833 -66.5 -19.5s-57.166 -8.5 -92.499 -8.5c-23.333 0 -46.833 2.66699 -70.5 8s-46.667 13.166 -69 23.499s-43.5 23.5 -63.5 39.5s-37.667 34.333 -53 55
c-29.333 38 -49.833 84.5 -61.5 139.5s-17.5 112.5 -17.5 172.5c0 54 5 104.833 15 152.5s26.667 91.167 50 130.5c14.667 24 32.334 45.667 53.001 65s42.667 35.666 66 48.999s47.833 23.666 73.5 30.999s51.5 11.666 77.5 12.999
c44 1.33301 79.833 -0.333984 107.5 -5.00098s49.167 -10.334 64.5 -17.001c18 -7.33301 31.667 -16 41 -26l63 -108l-168 89c-8 4 -20.5 6.66699 -37.5 8s-32.167 1.66602 -45.5 0.999023c-24.667 -0.666992 -50.5 -7.5 -77.5 -20.5s-52 -34.333 -75 -64
s-42 -68.834 -57 -117.501s-22.5 -109 -22.5 -181c-0.666992 -66 6.16602 -123.667 20.499 -173s32.833 -90.166 55.5 -122.499s48.334 -56.166 77.001 -71.499s57 -22 85 -20c7.33301 0.666992 15.166 1.83398 23.499 3.50098s16.5 3.83398 24.5 6.50098
s15.167 5.5 21.5 8.5s11.5 6.16699 15.5 9.5zM203.999 628.004c-23.333 -14 -44.002 -29.999 -62.002 -47.999s-32.333 -34.333 -43 -49c-4 -6 -8.66699 -13.5 -14 -22.5s-10.5 -18.833 -15.5 -29.5s-9.5 -21.167 -13.5 -31.5s-6.33301 -19.833 -7 -28.5l26 -48l31 48
c2.66699 22 5.83398 41.167 9.50098 57.5s7.5 30.166 11.5 41.499c2.66699 8 6.83398 17 12.501 27s12.167 20 19.5 30s14.833 19.667 22.5 29s15.167 17.333 22.5 24zM39.9971 286.005l27 -39l29 39l-29 38zM197.997 -86.9951c-14 13.333 -28.833 32.001 -44.5 56.001
s-27.5 47.667 -35.5 71s-12.833 42.833 -14.5 58.5s-2.5 32.167 -2.5 49.5l-31 48l-26 -48c2 -17.333 7.5 -37.5 16.5 -60.5s19.833 -44.167 32.5 -63.5c13.333 -20.667 28.333 -40.834 45 -60.501s36.667 -36.5 60 -50.5z" />
    <glyph glyph-name="D" unicode="D" horiz-adv-x="611" 
d="M591 307c4.66699 -87.333 -5.00098 -165.669 -29.001 -235.002c-10 -29.333 -24 -58.166 -42 -86.499s-41 -53.666 -69 -75.999s-61.833 -40.333 -101.5 -54s-86.5 -20.5 -140.5 -20.5h-205l76 62v739l-80 64h194c72 0 136.667 -13.333 194 -40
c24.667 -11.333 48.834 -26.333 72.501 -45s44.834 -42.167 63.501 -70.5s34.167 -62 46.5 -101s19.166 -84.5 20.499 -136.5zM332.999 -86.0029c12 6.66699 26.502 16.8311 43.502 30.498s33.333 34.334 49 62.001s28.834 64.167 39.501 109.5s15 103 13 173
c0 54.667 -6.33301 105.334 -19 152.001c-5.33301 20 -12.5 39.833 -21.5 59.5s-20.333 38.334 -34 56.001s-30 33.167 -49 46.5s-41.167 23.666 -66.5 30.999c-4.66699 1.33301 -11.334 2.33301 -20.001 3s-17.5 1.16699 -26.5 1.5s-17.833 0.5 -26.5 0.5h-20v-740
c20.667 -0.666992 40 -0.333984 58 0.999023c15.333 1.33301 30.666 2.83301 45.999 4.5s26.666 4.83398 33.999 9.50098zM107.001 144.994l26 -237l31 237l-28 47zM105.001 388.994l30 -48l29 48l-30 231zM135.001 306.994l-29 -38l29 -39l27 39zM400.001 613.994
c6.66699 -6.66699 13.998 -14.668 21.998 -24.001s15.667 -19 23 -29s13.833 -20 19.5 -30s9.83398 -19 12.501 -27c4 -11.333 7.83301 -25.166 11.5 -41.499s6.83398 -35.5 9.50098 -57.5l31 -48l26 48c-1.33301 8.66699 -3.83301 18.167 -7.5 28.5s-8 20.833 -13 31.5
s-10.167 20.5 -15.5 29.5s-10 16.5 -14 22.5c-10.667 14.667 -25 31 -43 49s-38.667 34 -62 48zM535.999 322.993l-29 -38l29 -39l27 39zM404.999 -77.0068c23.333 14 43.333 30.832 60 50.499s31.667 39.834 45 60.501c12.667 19.333 23.5 40.5 32.5 63.5
s14.5 43.167 16.5 60.5l-26 48l-31 -48c0 -17.333 -0.833008 -33.833 -2.5 -49.5s-6.5 -35.167 -14.5 -58.5s-19.833 -47 -35.5 -71s-30.5 -42.667 -44.5 -56z" />
    <glyph glyph-name="E" unicode="E" horiz-adv-x="647" 
d="M0 700h571l55 -205l-142 149h-263v-350h177l69 134v-321l-67 131h-179v-338h270l136 136l-56 -201h-569l100 68v726zM133 149l26 -237l31 237l-28 47zM131 393l30 -48l29 48l-30 231zM161 311l-29 -38l29 -39l27 39z" />
    <glyph glyph-name="F" unicode="F" horiz-adv-x="615" 
d="M0 700h571l42 -205l-129 149h-263v-350h177l69 134v-321l-67 131h-179v-338l97 -65h-316l100 68v726zM133 149l26 -237l31 237l-28 47zM131 393l30 -48l29 48l-30 231zM161 311l-29 -38l29 -39l27 39z" />
    <glyph glyph-name="G" unicode="G" horiz-adv-x="763" 
d="M751 242l-117.997 -67.9971v-282c-16.667 -12.667 -37.667 -24 -63 -34c-21.333 -8.66699 -48.666 -16.334 -81.999 -23.001s-73 -10 -119 -10c-66 0 -122.5 11.833 -169.5 35.5s-85.167 55.5 -114.5 95.5s-50.833 86.833 -64.5 140.5s-20.5 110.5 -20.5 170.5
c0 58 7.66699 113.167 23 165.5s38.333 98.833 69 139.5s69.167 73.334 115.5 98.001s100.166 38.667 161.499 42c46 2 83.167 0.666992 111.5 -4s50.833 -10.334 67.5 -17.001c19.333 -7.33301 33.666 -16.666 42.999 -27.999l44 -180l-172 168c-4.66699 2 -11 3.5 -19 4.5
s-16.667 1.66699 -26 2s-18.833 0.5 -28.5 0.5s-18.167 -0.333008 -25.5 -1c-36 -2 -68.167 -13.333 -96.5 -34s-52.333 -48.334 -72 -83.001s-34.834 -75.334 -45.501 -122.001s-16 -97 -16 -151s5.16699 -104 15.5 -150s25.166 -86.167 44.499 -120.5
s43.333 -61.833 72 -82.5s61.667 -32.334 99 -35.001c17.333 -1.33301 31.833 -2.16602 43.5 -2.49902s22.667 0.5 33 2.5s21.333 5.66699 33 11s26.167 13.666 43.5 24.999v258l-123 69h356zM210.003 619.003c-23.333 -14 -44.002 -29.999 -62.002 -47.999
s-32.333 -34.333 -43 -49c-4 -6 -8.66699 -13.5 -14 -22.5s-10.5 -18.833 -15.5 -29.5s-9.5 -21.167 -13.5 -31.5s-6.33301 -19.833 -7 -28.5l26 -48l31 48c2.66699 22 5.83398 41.167 9.50098 57.5s7.5 30.166 11.5 41.499c2.66699 8 6.83398 17 12.501 27
s12.167 20 19.5 30s14.833 19.667 22.5 29s15.167 17.333 22.5 24zM40.001 279.004l27 -39l29 39l-29 38zM204.001 -92.9961c-14 13.333 -28.833 32.001 -44.5 56.001s-27.5 47.667 -35.5 71s-12.833 42.833 -14.5 58.5s-2.5 32.167 -2.5 49.5l-31 48l-26 -48
c2 -17.333 7.5 -37.5 16.5 -60.5s19.833 -44.167 32.5 -63.5c13.333 -20.667 28.333 -40.834 45 -60.501s36.667 -36.5 60 -50.5zM545.001 -34.9951l30 -48l29 48l-30 231z" />
    <glyph glyph-name="H" unicode="H" horiz-adv-x="773" 
d="M667 629v-712l106 -82h-322l105 80v323h-322v-331l114 -72h-349l119 72v722l-119 71h348l-113 -71v-335h322v335l-106 71h322zM150 138l26 -237l31 237l-28 47zM148 382l30 -48l29 48l-30 231zM178 300l-29 -38l29 -39l27 39zM583 138l26 -237l31 237l-28 47zM581 382
l30 -48l29 48l-30 231zM611 300l-29 -38l29 -39l27 39z" />
    <glyph glyph-name="I" unicode="I" horiz-adv-x="355" 
d="M240 -93l114 -72h-355l119 72v722l-119 71h354l-113 -71v-722zM150 138l29 -237l30 237l-29 47zM148 382l30 -48l31 48l-30 231zM178 300l-29 -38l29 -39l31 39z" />
    <glyph glyph-name="J" unicode="J" horiz-adv-x="516" 
d="M2 -79c-6 25.333 -3.83594 46.668 6.49707 64.001s28.166 26.333 53.499 27c8.66699 0 16.834 -1.83301 24.501 -5.5s14.334 -8.83398 20.001 -15.501s9.5 -14.334 11.5 -23.001s1.33301 -18 -2 -28c-5.33301 -17.333 -5.16602 -31.5 0.500977 -42.5
s19.834 -16.833 42.501 -17.5c10 0 19.167 2.33301 27.5 7s15.666 11.167 21.999 19.5s11.833 17.833 16.5 28.5s8.66699 21.667 12 33c7.33301 26.667 13 56.667 17 90v579l-113 63h362l-123 -65v-557c0.666992 -47.333 -6.33301 -89.333 -21 -126
c-6 -16 -14.167 -31.5 -24.5 -46.5s-23.5 -28.333 -39.5 -40s-35 -21.167 -57 -28.5s-47.667 -11 -77 -11c-26 0 -48.167 3.33301 -66.5 10s-33.833 14.834 -46.5 24.501s-22.667 20 -30 31s-12.666 20.833 -15.999 29.5zM242.997 -108.998
c18 11.333 34.332 26.668 48.999 46.001s26.667 40.333 36 63c7.33301 17.333 12.666 36 15.999 56s5 43.333 5 70l-28 48l-29 -48c0 -17.333 0.833008 -34.833 2.5 -52.5s1.16699 -35.5 -1.5 -53.5c-3.33301 -24 -8.66602 -46.833 -15.999 -68.5
s-18.666 -41.834 -33.999 -60.501zM319.996 612.004l-30 -231l29 -48l30 48zM291.996 261.004l27 -39l29 39l-29 38z" />
    <glyph glyph-name="K" unicode="K" horiz-adv-x="715" 
d="M186 -97l94 -68h-310l102 72v736l-93 59h293l-86 -59v-305l246 305l-68 59h246l-103 -59l-244 -307l337 -431l97 -70h-327l95 63l-279 352v-347zM103 145l26 -237l31 237l-28 47zM101 389l30 -48l29 48l-30 231zM131 307l-29 -38l29 -39l27 39zM247 223l262 -286
l-217 321l-64 36z" />
    <glyph glyph-name="L" unicode="L" horiz-adv-x="615" 
d="M1 -165l106 53v741l-106 71h310l-90 -71v-738h227l166 150l-65 -206h-548zM137 138l29 -237l30 237l-29 47zM135 382l30 -48l31 48l-30 231zM165 300l-29 -38l29 -39l31 39z" />
    <glyph glyph-name="M" unicode="M" horiz-adv-x="957" 
d="M-2 -165l100 61v743l-101 61h205l268 -622l269 622h201l-109 -61v-747l103 -57h-318l95 57v566l-283 -623l-252 623v-560l90 -63h-268zM746 138l29 -237l30 237l-29 47zM744 382l30 -48l31 48l-30 231zM774 300l-29 -38l29 -39l31 39zM331 172l116 -210l-63 230l-43 34z
M236 396l47 -34l8 55l-118 202zM296 331l-13 -46l42 -25l10 45z" />
    <glyph glyph-name="N" unicode="N" horiz-adv-x="735" 
d="M17 -165l124 75v718l-139 72h200l383 -548v477l-96 71h244l-83 -71v-820l-437 677v-577l100 -74h-296zM455 183l154 -183l-106 215l-49 24zM320 385l51 -23l-2 56l-153 176zM390 334l-3 -48l45 -17l1 47z" />
    <glyph glyph-name="O" unicode="O" horiz-adv-x="759" 
d="M640 540c21.333 -36 37.999 -77.5059 49.999 -124.506s18 -96.5 18 -148.5c0 -29.333 -2.33301 -59.166 -7 -89.499s-11.334 -59.666 -20.001 -87.999s-19.167 -55.166 -31.5 -80.499s-25.833 -47.666 -40.5 -66.999c-32 -42 -70.167 -71.5 -114.5 -88.5
s-91.166 -25.5 -140.499 -25.5c-50 0 -98.667 10.833 -146 32.5s-88 52.834 -122 93.501c-32 39.333 -54.333 86.166 -67 140.499s-19 111.833 -19 172.5c0 54 5.33301 105.333 16 154s29.334 92 56.001 130c16 24.667 34.333 46.834 55 66.501s43.167 36.5 67.5 50.5
s50 24.667 77 32s54.5 11 82.5 11c58 0 111.833 -15.167 161.5 -45.5s91.167 -72.166 124.5 -125.499zM352.999 -118.006c38 0.666992 71.0029 11.1689 99.0029 31.502s51.333 47.833 70 82.5s32.667 75.167 42 121.5s14 96.166 14 149.499c0 54 -5 104.667 -15 152
s-24.833 88.833 -44.5 124.5s-43.667 63.667 -72 84s-60.5 30.166 -96.5 29.499c-34 -0.666992 -64.833 -11.334 -92.5 -32.001s-51.167 -48.5 -70.5 -83.5s-34.333 -76 -45 -123s-16 -97.5 -16 -151.5c0 -53.333 5.16699 -103.333 15.5 -150s25.166 -87.5 44.499 -122.5
s43.166 -62.667 71.499 -83s60.166 -30.166 95.499 -29.499zM203.002 618.996c-23.333 -14 -44.002 -29.999 -62.002 -47.999s-32.333 -34.333 -43 -49c-4 -6 -8.66699 -13.5 -14 -22.5s-10.5 -18.833 -15.5 -29.5s-9.5 -21.167 -13.5 -31.5s-6.33301 -19.833 -7 -28.5
l26 -48l31 48c2.66699 22 5.83398 41.167 9.50098 57.5s7.5 30.166 11.5 41.499c2.66699 8 6.83398 17 12.501 27s12.167 20 19.5 30s14.833 19.667 22.5 29s15.167 17.333 22.5 24zM33 278.997l27 -39l29 39l-29 38zM197 -93.0029c-14 13.333 -28.833 32.001 -44.5 56.001
s-27.5 47.667 -35.5 71s-12.833 42.833 -14.5 58.5s-2.5 32.167 -2.5 49.5l-31 48l-26 -48c2 -17.333 7.5 -37.5 16.5 -60.5s19.833 -44.167 32.5 -63.5c13.333 -20.667 28.333 -40.834 45 -60.501s36.667 -36.5 60 -50.5zM501 618.998
c6.66699 -6.66699 13.998 -14.668 21.998 -24.001s15.667 -19 23 -29s13.833 -20 19.5 -30s9.83398 -19 12.501 -27c4 -11.333 7.83301 -25.166 11.5 -41.499s6.83398 -35.5 9.50098 -57.5l31 -48l26 48c-1.33301 8.66699 -3.83301 18.167 -7.5 28.5s-8 20.833 -13 31.5
s-10.167 20.5 -15.5 29.5s-10 16.5 -14 22.5c-10.667 14.667 -25 31 -43 49s-38.667 34 -62 48zM643.998 316.997l-29 -38l29 -39l27 39zM506.998 -93.0029c23.333 14 43.333 30.832 60 50.499s31.667 39.834 45 60.501c12.667 19.333 23.5 40.5 32.5 63.5
s14.5 43.167 16.5 60.5l-26 48l-31 -48c0 -17.333 -0.833008 -33.833 -2.5 -49.5s-6.5 -35.167 -14.5 -58.5s-19.833 -47 -35.5 -71s-30.5 -42.667 -44.5 -56z" />
    <glyph glyph-name="P" unicode="P" horiz-adv-x="563" 
d="M225 306c44 0 83.332 6.33105 117.999 18.998c14.667 5.33301 29 12.333 43 21s26.167 19.5 36.5 32.5s18.5 28.333 24.5 46s8.66699 38.5 8 62.5c-1.33301 20.667 -5.5 38.834 -12.5 54.501s-16 29.167 -27 40.5s-23.333 20.833 -37 28.5s-27.5 13.834 -41.5 18.501
c-33.333 11.333 -70.666 17 -111.999 17v-340zM-1.00098 -165.002l108.999 61.999v739l-110 64h287c9.33301 0 22.333 -1 39 -3s34.834 -5.66699 54.501 -11s39.5 -12.666 59.5 -21.999s38.167 -21.666 54.5 -36.999s29.833 -34 40.5 -56s16.334 -48.333 17.001 -79
c1.33301 -40 -4.16699 -73.667 -16.5 -101s-28.333 -50 -48 -68s-41.834 -32 -66.501 -42s-49.167 -17.333 -73.5 -22s-47.333 -7.33398 -69 -8.00098s-39.167 -0.666992 -52.5 0v-354l110 -62h-335zM136.998 149.997l29 -237l30 237l-29 47zM134.998 393.997l30 -48l31 48
l-30 231zM164.998 311.997l-29 -38l29 -39l31 39zM498.998 556.997l-26 -74l28 -80l32 80z" />
    <glyph glyph-name="Q" unicode="Q" horiz-adv-x="775" 
d="M-12 -291c12.667 25.333 27.3311 47.3271 43.998 65.9941s34.5 34.334 53.5 47.001s38.333 22.334 58 29.001s38.834 11 57.501 13c-21.333 11.333 -41.833 24.333 -61.5 39s-37.5 31.667 -53.5 51c-32 39.333 -54.333 86.166 -67 140.499s-19 111.833 -19 172.5
c0 54 5.33301 105.333 16 154s29.334 92 56.001 130c16 24.667 34.333 46.834 55 66.501s43.167 36.5 67.5 50.5s50 24.667 77 32s54.5 11 82.5 11c58 0 111.833 -15.167 161.5 -45.5s91.167 -72.166 124.5 -125.499c21.333 -36 38 -77.5 50 -124.5s18 -96.5 18 -148.5
c0 -29.333 -2.33301 -59.166 -7 -89.499s-11.334 -59.666 -20.001 -87.999s-19.167 -55.166 -31.5 -80.499s-25.833 -47.666 -40.5 -66.999c-20 -26 -40.833 -46.5 -62.5 -61.5s-47.167 -26.5 -76.5 -34.5c16 -3.33301 29.5 -8 40.5 -14l36.5 -20
c10.667 -5.33301 21.334 -9.33301 32.001 -12s20.667 -4.33398 30 -5.00098c10.667 -1.33301 20.667 -1.33301 30 0l130 105l-34 -72l-28.5 -63l-24.5 -57c-33.333 -4 -62 -3 -86 3s-47 14.167 -69 24.5l-69 34c-24 12.333 -52.667 22.833 -86 31.5
c-31.333 8 -64.5 11.5 -99.5 10.5s-69.5 -6 -103.5 -15s-66 -21.5 -96 -37.5s-56 -34.667 -78 -56zM352.997 -118.006c38 0.666992 71.0029 11.1689 99.0029 31.502s51.333 47.833 70 82.5s32.667 75.167 42 121.5s14 96.166 14 149.499c0 54 -5 104.667 -15 152
s-24.833 88.833 -44.5 124.5s-43.667 63.667 -72 84s-60.5 30.166 -96.5 29.499c-34 -0.666992 -64.833 -11.334 -92.5 -32.001s-51.167 -48.5 -70.5 -83.5s-34.333 -76 -45 -123s-16 -97.5 -16 -151.5c0 -53.333 5.16699 -103.333 15.5 -150s25.166 -87.5 44.499 -122.5
s43.166 -62.667 71.499 -83s60.166 -30.166 95.499 -29.499zM507 -93.0039c23.333 14 43.333 30.832 60 50.499s31.667 39.834 45 60.501c12.667 19.333 23.5 40.5 32.5 63.5s14.5 43.167 16.5 60.5l-26 48l-31 -48c0 -17.333 -0.833008 -33.833 -2.5 -49.5
s-6.5 -35.167 -14.5 -58.5s-19.833 -47 -35.5 -71s-30.5 -42.667 -44.5 -56zM197 -93.0049c-14 13.333 -28.833 32.001 -44.5 56.001s-27.5 47.667 -35.5 71s-12.833 42.833 -14.5 58.5s-2.5 32.167 -2.5 49.5l-31 48l-26 -48c2 -17.333 7.5 -37.5 16.5 -60.5
s19.833 -44.167 32.5 -63.5c13.333 -20.667 28.333 -40.834 45 -60.501s36.667 -36.5 60 -50.5zM203 618.996c-23.333 -14 -44.002 -29.999 -62.002 -47.999s-32.333 -34.333 -43 -49c-4 -6 -8.66699 -13.5 -14 -22.5s-10.5 -18.833 -15.5 -29.5s-9.5 -21.167 -13.5 -31.5
s-6.33301 -19.833 -7 -28.5l26 -48l31 48c2.66699 22 5.83398 41.167 9.50098 57.5s7.5 30.166 11.5 41.499c2.66699 8 6.83398 17 12.501 27s12.167 20 19.5 30s14.833 19.667 22.5 29s15.167 17.333 22.5 24zM500.998 618.997
c6.66699 -6.66699 13.998 -14.668 21.998 -24.001s15.667 -19 23 -29s13.833 -20 19.5 -30s9.83398 -19 12.501 -27c4 -11.333 7.83301 -25.166 11.5 -41.499s6.83398 -35.5 9.50098 -57.5l31 -48l26 48c-1.33301 8.66699 -3.83301 18.167 -7.5 28.5s-8 20.833 -13 31.5
s-10.167 20.5 -15.5 29.5s-10 16.5 -14 22.5c-10.667 14.667 -25 31 -43 49s-38.667 34 -62 48zM32.9961 278.996l27 -39l29 39l-29 38zM643.996 316.996l-29 -38l29 -39l27 39z" />
    <glyph glyph-name="R" unicode="R" horiz-adv-x="758" 
d="M4 -165l113.003 64.999v724l-119 76h338c9.33301 0 21.666 -1 36.999 -3s31.666 -5.66699 48.999 -11s35 -12.666 53 -21.999s34.167 -21.666 48.5 -36.999s26.166 -34 35.499 -56s14.666 -48.333 15.999 -79c1.33301 -33.333 -2.66699 -62.166 -12 -86.499
s-21.833 -44.833 -37.5 -61.5s-33 -30.334 -52 -41.001s-37.667 -18.834 -56 -24.501s-35.166 -9.5 -50.499 -11.5s-27 -3 -35 -3l285 -361l127 -68h-233l-279 374v-309l113 -65h-341zM236.003 312.999c46.667 -1.33301 88.002 3.99902 124.002 15.999
c15.333 4.66699 30.166 11.167 44.499 19.5s27 18.833 38 31.5s19.5 27.667 25.5 45s8.33301 38 7 62c-1.33301 22.667 -5.83301 42.5 -13.5 59.5s-17.334 31.333 -29.001 43s-24.5 21.334 -38.5 29.001s-28.333 13.5 -43 17.5c-34 10 -72.333 13.333 -115 10v-333z
M148.005 149.998l29 -237l30 237l-29 47zM146.005 393.998l30 -48l31 48l-30 231zM176.005 311.998l-29 -38l29 -39l31 39zM287.005 183.998l249 -270l-203 305l-64 34zM519.005 556.998l-26 -74l28 -80l32 80z" />
    <glyph glyph-name="S" unicode="S" horiz-adv-x="547" 
d="M364 638c-26 6 -50.9971 10.332 -74.9971 12.999c-20.667 2 -41.5 1.66699 -62.5 -1s-37.833 -9.66699 -50.5 -21c-25.333 -24 -36.333 -48.167 -33 -72.5s15.333 -49.5 36 -75.5s47 -53 79 -81l97 -88c36.667 -34 65.834 -65.333 87.501 -94s38.334 -55.5 50.001 -80.5
s19 -48.333 22 -70s4.5 -42.167 4.5 -61.5c-0.666992 -40.667 -10.5 -73.334 -29.5 -98.001s-41.833 -43.667 -68.5 -57s-54.334 -22.166 -83.001 -26.499s-53 -6.5 -73 -6.5c-44 -0.666992 -80.333 1.83301 -109 7.5s-51.667 11.834 -69 18.501
c-20 7.33301 -35.333 16 -46 26l-70 198l169 -161c12 -8.66699 25.667 -15.667 41 -21c13.333 -4.66699 28.666 -8.16699 45.999 -10.5s36 -1.5 56 2.5c18.667 4 35.667 9 51 15s28.666 14.5 39.999 25.5s20 25.167 26 42.5s9 39.333 9 66c0 18 -6 37.5 -18 58.5
s-26.5 42 -43.5 63s-35.167 41 -54.5 60s-36.333 34.833 -51 47.5l-74.5 59.5c-26.333 20.333 -51 42 -74 65s-42.167 48 -57.5 75s-23.333 57.5 -24 91.5c-0.666992 24 5.16602 46.5 17.499 67.5s29.5 39.333 51.5 55s48.167 28 78.5 37s63.5 13.5 99.5 13.5
s67.167 -2.33301 93.5 -7s48.166 -10 65.499 -16c20 -7.33301 36.667 -15.333 50 -24l52 -178zM73.0029 594.999c0.666992 -27.333 4.00098 -53.502 10.001 -78.502s12.667 -45.5 20 -61.5c2.66699 -6.66699 6.66699 -14.667 12 -24s11.333 -18.666 18 -27.999
s13.667 -18.333 21 -27s14.666 -15.667 21.999 -21l54 -1l-26 50c-18 13.333 -33.167 25.833 -45.5 37.5s-22.5 21.834 -30.5 30.501c-5.33301 6.66699 -11 15 -17 25s-11.5 20.667 -16.5 32s-9.33301 22.833 -13 34.5s-6.5 22.167 -8.5 31.5zM268.004 318.997l8 -47l48 -7
l-9 47zM466.004 -53.0029c6 26.667 7.66602 52.999 4.99902 78.999s-6.66699 50.667 -12 74c-5.33301 22.667 -13.166 45.167 -23.499 67.5s-21.166 40.166 -32.499 53.499l-52 15l13 -56c12 -12 23.167 -24.167 33.5 -36.5s21.166 -29.166 32.499 -50.499
c5.33301 -11.333 10.333 -23.5 15 -36.5s8.5 -26 11.5 -39s5.33301 -25.667 7 -38s2.5 -23.166 2.5 -32.499z" />
    <glyph glyph-name="T" unicode="T" horiz-adv-x="830" 
d="M3 504l97 196h645l85 -196l-176 139h-174v-741l100 -67h-322l105 65v743h-184zM394 159l26 -237l31 237l-28 47zM392 403l30 -48l29 48l-30 231zM422 321l-29 -38l29 -39l27 39z" />
    <glyph glyph-name="U" unicode="U" horiz-adv-x="731" 
d="M324 702l-94.999 -58.001v-578c0.666992 -32 7 -60.333 19 -85c4.66699 -10.667 11 -21.167 19 -31.5s18 -19.5 30 -27.5s26.333 -14.333 43 -19s36 -7 58 -7c20 0 37.5 2.5 52.5 7.5s27.833 11.667 38.5 20s19.5 17.833 26.5 28.5s12.833 21.667 17.5 33
c10.667 26.667 16 56.667 16 90v567l-84 60h249l-90 -58v-562c1.33301 -46 -6.66699 -87.333 -24 -124c-7.33301 -15.333 -16.833 -30.5 -28.5 -45.5s-26.5 -28.167 -44.5 -39.5s-39.333 -20.5 -64 -27.5s-53.334 -10.5 -86.001 -10.5c-37.333 0 -69.833 3.66699 -97.5 11
s-51.5 16.833 -71.5 28.5s-36.833 25 -50.5 40s-24.5 30.5 -32.5 46.5c-19.333 36.667 -29 78.334 -29 125.001v555l-97 61h325zM134.001 403.999l30 -48l29 48l-30 231zM164.001 321.999l-29 -38l29 -39l27 39zM240.001 -86.001c-15.333 18.667 -26.667 38.832 -34 60.499
s-12.666 44.5 -15.999 68.5c-2.66699 18 -3.16699 35.833 -1.5 53.5s2.5 35.167 2.5 52.5l-29 48l-28 -48c0 -26.667 1.66699 -50 5 -70s8.66602 -38.667 15.999 -56c9.33301 -22.667 21.333 -43.667 36 -63s31 -34.666 49 -45.999z" />
    <glyph glyph-name="V" unicode="V" horiz-adv-x="751" 
d="M-3 702l328 -1l-99 -60l190 -594l140 593l-105 62h291l-113 -63l-198 -804h-66l-263 803zM291 162l101 -217l-47 235l-41 36zM212 392l44 -36l11 55l-102 209zM266 324l-15 -45l40 -28l13 45z" />
    <glyph glyph-name="W" unicode="W" horiz-adv-x="1140" 
d="M-26 700h345l-118 -58l183 -588l153 588l-101 58h311l-106 -58l181 -567l144 568l-107 57h301l-117 -58l-218 -807h-68l-192 652l-173 -652h-72l-243 807zM254 162l93 -221l-39 237l-39 37zM183 394l43 -37l13 54l-95 213zM235 324l-17 -44l39 -29l14 44zM699 162
l93 -221l-39 237l-39 37zM628 394l43 -37l13 54l-95 213zM680 324l-17 -44l39 -29l14 44z" />
    <glyph glyph-name="X" unicode="X" horiz-adv-x="769" 
d="M6 702h302l-77 -59l133 -242l131 243l-73 56h246l-106 -56l-164 -304l235 -442l123 -63h-369l112 60l-158 330l-157 -321l105 -69h-293l119 69l190 374l-192 364zM410 147l158 -240l-108 267l-47 28zM294 360l49 -28l1 56l-163 236zM358 302l-7 -47l44 -21l5 47z" />
    <glyph glyph-name="Y" unicode="Y" horiz-adv-x="663" 
d="M247 702l-74 -58l167 -290l157 290l-78 58h231l-86 -58l-195 -354v-386l91 -69h-302l102 72v379l-199 358l-89 58h275zM287 151l34 -271l25 271l-29 47zM230 384l48 -30l3 55l-157 220zM315 317l-29 -38l29 -39l31 39z" />
    <glyph glyph-name="Z" unicode="Z" horiz-adv-x="719" 
d="M197 -105h369l155 136l-77 -196l-618 1l514 808h-353l-187 -154l94 210h621l-518 -805v0zM581 606l-163 -208l-4 -55l57 23l110 240v0zM395 300l-51 -18l2 -50l49 17v51v0zM268 164l-120 -247l171 215l-3 54l-48 -22v0z" />
    <glyph glyph-name="bracketleft" unicode="[" horiz-adv-x="251" 
d="M-1 762h226v-44h-137v-905h137v-46h-226v995z" />
    <glyph glyph-name="backslash" unicode="\" horiz-adv-x="421" 
d="M399 -165h-47l-351 866h47z" />
    <glyph glyph-name="bracketright" unicode="]" horiz-adv-x="256" 
d="M225 -233h-226v46h137v905h-137v44h226v-995z" />
    <glyph glyph-name="asciicircum" unicode="^" horiz-adv-x="789" 
d="M761 469l5 -14l-32 12l-52 3l-27 -3l-22 -8l-19 -14l-11 -10l-6 -4l-23 -34l-14 -25l-4 -3l-5 -9l-6 -11l-33 -33v-2l11 -4l-39 -23l-1 -2v-3l8 -13l1 -16l6 -23l-10 -26l-6 -10l-18 -4l-5 -2l-8 5l-18 -3l-5 -7v-5l-20 -28l-8 -34l-10 -16v-2l9 -12l1 -14l4 -17l25 -4
l39 -7l20 -2l68 -10l4 -1l2 -7l15 -11l8 -6l6 -10l18 -20l30 -57l7 -21l13 -24l-2 -7l5 -13l-2 -1v-3l2 -1l11 1l2 -2l-2 -4h-10l-1 -1l1 -10l-1 -2l-5 12l-83 -13l-3 -3l-35 -3l-42 -3l-5 -1l-21 1h-4l-6 4l-12 4l-18 12l-5 2l-10 -2l-63 51l-41 32l-5 4l-17 -4l-35 2
l-11 4l-15 16l-5 11l-11 12l-9 2l-7 7l-1 8l-3 6l-3 2l-4 3h-4l-50 -47l-7 -3l-14 -3l-15 -7l-22 -4l-40 -12l-2 -2l-4 3l-20 -5l-1 1l2 5l3 16l7 14l8 12l18 21v3l44 33l8 5l26 38l23 45l-8 16v3v1h-4l-8 -11l-11 -27l-21 -31l-34 -13l-3 -3l-9 -2l-13 -5l-7 -2h-1l2 20
l11 38l3 8v7l-3 3l-5 6l-4 5l1 12l8 22v20v3l7 3l35 37l4 6v6l30 17l57 22l2 4l7 3l28 23l3 6l12 19l11 34v1l-23 3l-13 -4h-5l-2 1l12 23l3 6l12 12h4h1v2l-1 1l-32 -3h-5h-2l-8 16l-1 10l-4 2l-6 23l-2 25l-4 21v3l-1 1l8 47l24 63l33 79l6 7l4 1l20 -1l34 -7l2 -3l14 -1
l34 -18l24 -18l3 -2h3l2 1l31 -38l1 -6l5 -6l-1 -8l-5 -12l-4 -6v-2l1 -1l21 5l23 1l27 3l34 -1l27 1l9 -3l44 -6l40 -14l17 -10h2l1 2l-6 7l10 -2l16 -10h8l52 -33l12 -9l2 -4v-5l27 -26v0zM211 411l33 4v8h-2l-1 -2l-5 2l-5 -3l-13 -1l-13 -4l-16 2l-2 3l-6 24l-6 29
l-3 21l1 12l-1 5l1 11l4 27l17 49l1 6l4 8l11 30l17 34v5l4 3h4l32 -3l38 -15l31 -18l46 -40v-5l-10 -24l-8 -15h1l7 4l8 1v8l3 2l12 23l-6 12l-11 16l-16 14l-15 12l-33 23l-24 5l-25 5l-29 4l-8 2l-4 -4l-12 -32l-14 -32l-17 -54l-14 -46l-1 -9l-2 -35l8 -31l6 -15l1 -9
l3 -4l-1 -4l2 -9h6l13 2l9 -2v0zM244 524l-11 2l-2 -2l-1 -11l1 -2l11 5l2 3v5v0zM235 538h3v2h-3v-2v0zM239 552l16 16l10 6l-14 7l-7 -8l-5 1l-9 -6l-4 -7l-3 -12h3l2 7l11 10l2 -3l-2 -4l-3 -10h3v2v1v0zM217 508l-2 3v3l3 4l3 9l-3 1h-6l-7 -20l2 -2l9 -8l2 2v6l-1 2v0z
M230 429l9 20l-4 3l-12 7l-15 -34h7l15 4v0zM242 443l-3 -7l-3 -7l8 1v4l3 6l-1 4l-4 1v-2v0zM210 441l7 22l-1 1l-12 3l-2 -7l-4 -6l-4 -14l-4 -6v-6l2 -4h5l2 1l11 16v0zM190 493l-8 -16h1l14 11l-4 5h-3v0zM181 484l3 13l-6 3l3 -16v0zM198 469l-15 1l4 -22l2 -5l9 26v0z
M195 498l13 -5v4l-9 9l2 11h-3l-4 5l-13 5l-2 -4l-1 -14l3 -3h6l8 -8v0zM192 546l-5 -8v-5l11 -6l4 13l-5 6l2 2l2 21l9 10l1 8l5 9l10 -2l2 7l3 9l-13 5l-5 -13l-3 -14l-8 -11l-5 -13l-5 -18v0zM188 556l17 42l11 20l-6 3l-16 -43l-6 -22v0zM212 561l9 3l1 8l-10 1l-1 -1
l-1 -9l1 -2h1v0zM216 556h-5l-3 -10l2 -2h2l4 3v9v0zM217 579l13 -2l1 1v3l-5 5h-4l-5 -2v-5v0zM205 528l-1 -2l1 1v1v0zM215 534l9 5v3h-2l-4 -3h-5v-5h2v0zM276 602v5l-1 -3l-5 6l-1 2l-13 1l-5 -3l-12 -29h5v1l12 19l13 2l2 -2h4l1 1v0zM278 584l-2 -7l4 -8h2l2 3l1 -3h6
l2 3v6v0l-15 6v0zM273 588l-8 6h-4l-1 -8l10 -5l1 1l2 6v0zM239 601l2 3l-2 3h-3l-1 -6l-3 -4h3l4 4v0zM252 556l-3 -24l1 -1l11 -12l21 4l9 3l10 1l9 4l4 3l6 4v2h-1l-18 7l-11 9l-13 7l-10 3l-6 -2l-9 -8v0zM296 566l2 -2l15 -5l1 2l2 6h-1l-1 1l-4 4l-10 2l-4 -8v0z
M319 558l1 -2l16 -5v1l-9 9h-7l-1 -3v0zM321 572l15 -8l11 -6h3l5 8v7l-8 8l-22 11l-11 7l-23 11l-15 7l-27 13l-2 -2l-3 2l-26 14l-1 -2l-4 -14h5l8 -6l20 -9l4 4l10 2l10 -2l7 -7l1 2l3 -3l1 -6l-2 -2v-4h1l6 -5l22 -10l12 -10v0zM318 622l8 22h-3l-2 2l-10 4v-3l-16 -32
l3 -2l12 -4l8 13v0zM330 635l-9 -14l-6 -14l15 -8l12 22l2 9l-2 3l-8 5h-4v-3v0zM305 648v5h-1l-6 4l-5 2l-3 -4l-10 -23l-4 -7l2 -4h3l10 -2l5 14l9 15v0zM271 628l16 35l-18 8l-17 -36l19 -8v1v0zM249 642l13 29l-5 5h-7l-6 -3v-2l-3 -7l-2 -9l-6 -7v-4h2l12 -4l2 2v0z
M228 647l11 29l-6 1l-11 -27l6 -3v0zM352 590l11 17l1 5l-12 13h-5l-2 -10l-9 -13l-1 -8h1l3 -2l11 -6l2 1v3v0zM359 590l-4 -9l5 -2v2l9 15l1 8h-3l-8 -14v0zM201 370l38 5l10 5v3l-2 -1h-3l-2 3l15 20l16 12v3h-2l-5 -6l-27 -9l-23 -11l-8 -11l-7 -13v0zM252 419l12 2l3 4
l-1 4h-2l-2 1l-2 5h-5l-3 -16v0zM172 180v-21l5 -7l16 -8l20 1l8 9v5l-6 6l-8 15h-6l-12 -1l-2 -4l-3 -14l6 -1l11 -2v3l-6 6l-1 -2l-2 -5h-2l-1 1l-1 4l6 8h3l13 -14l-6 -9l-2 2h-19l-5 7l4 22l2 3l10 1l-1 2h-15l-6 -7v0zM239 100l-21 -10l-3 -5l-2 -9l4 -5l5 -4l14 2l3 3
v1l38 31l-26 5l-2 -2l-10 -7v0zM228 113l2 -2l1 2h-3v0zM212 101l-4 -3h3l4 3h-3v0zM204 100l4 4l8 6l1 -1h1v2l-17 4l-8 -2h1l8 -6l2 -7v0zM103 238v-2l26 -12l16 -11v-5l3 -12l-1 -1v-1l5 -10l-5 -57l11 -14l11 -15l3 8l11 15h5l1 -1l15 4l8 -4v1l-2 6l-2 2l-14 2l-1 -1
l-14 5l-10 10l-6 28l-5 8v7l-6 11v5l-4 43l8 11h-2l-16 -6l-21 -7l-14 -7v0zM173 81h-1v-3h1v3v0zM63 60l8 2l-1 2l-4 1l-26 16l-9 -37h1l17 7l14 9v0zM91 73l15 27h-2l-8 -7l-8 -3l-2 -3l-9 -5v-5l-7 -2l-13 5l26 -15l2 2l6 6v0zM54 90l4 -3l-1 3h-3v0zM140 159l3 22l-6 17
l-14 13l-12 5l-18 5l-13 -7l-22 -24l-3 -9l-6 -13l-4 -16l-3 -8v-23l16 -8l8 -2l17 -7l29 30l10 5l18 20v0zM34 -71l3 5l-2 3l-6 19l-6 -8l-6 -10l2 -4l-3 -3l-1 -7h4l2 3h5l3 2h5v0zM91 -46v3l-11 8l-2 7l-3 15l2 11h-4l-4 -1l-11 -9l-7 2l-19 -20v-4l5 -12l5 -14l6 -6v1
l-9 22l1 1l-1 8l3 6l3 -3l5 -21l4 -6l19 3l4 3h2l5 -1l4 7h3v0zM174 2v2l-4 4l-4 5l1 2v6l-3 3l-2 23l1 4l3 14l-2 2l-2 4l1 15l-2 4l-8 5h-6l-41 -68l-9 -9l-9 -8l-4 -7l-1 -25l14 -18l35 6l42 36v0zM178 100l-4 -14l1 -1h2l4 2l-3 8l9 12l2 -3v-3l-5 -3l-1 -5h4h1l6 5l3 8
h-2l-1 1l-11 2l-5 -9v0zM201 78l-4 8h-3l-11 -5v-3l-1 -1l-5 -2l-2 -10h3l4 4l19 9v0zM184 28l26 34l-3 7h-3l-9 -3l-14 -8l-3 -7l-3 -38l3 -3h1l9 -7v5l-1 2l-3 18v0zM224 49l2 8l-10 1l-4 -7l-17 -20l3 -18l7 -20l3 -14l7 42l9 28v0zM233 -17l6 4h-4l-3 2l1 -6v0v0zM233 3
l6 5v0l-4 2v2l-3 -10v-9l1 10v0zM259 -60h16l-6 2l-7 6h-2l-5 -3v-3h1l3 -2v0zM285 -62l2 2h-5v-2h3v0zM287 -53v4l-9 6l-5 1l-4 -2v-3l6 -6h12v0zM282 -35h2v1h-2v-1v0zM301 41l15 14l11 2l9 9l16 3l13 -3v3l-12 4l-20 2l-23 -6l-10 -7l-2 -5l-18 -22l-9 -9v-5v-4v0l2 -30
l-2 30l4 4h1l9 2v1l16 17v0zM310 21l10 -6l-5 6h-5v0zM360 -18v1h-1l1 -1v0zM374 -105v11l-4 12l-2 40l1 -36l-1 -22l4 -5h2v0zM394 -119l4 -2l-2 10l-4 29l2 -37v0zM421 -136v5l-3 12l-7 75l-3 5h-1l2 -8l-1 -1l8 -73l2 -15h3v0zM421 -53v6v0v-6v0zM655 -150v2h-4l-36 -8
l40 6v0zM646 -145l5 3l-5 2l-9 4l-3 2l-25 8l-34 17l-11 9l-21 8l-15 3l-5 3v4l-36 13l2 -3l-2 -3l-1 2l-10 2v-2l1 -13l-1 -3h-2l-1 1l-5 22l-9 3v-2l8 -36l-3 -4h-1l-6 9l-8 38l-3 3h-4v-5l4 -3l2 -26l3 -15v-30l-2 -2l-3 2l-4 23l-5 22l-5 41h-3l4 -48l4 -52l16 -8l29 -7
l28 2l95 11l19 4l22 1v0zM591 -109l12 -7l16 -6l-16 10l-12 3v0zM433 39l-68 5l-15 5h-15l-30 -18v-3h2l19 -10l3 -5l53 -20l8 -6l39 -21l24 -9l75 -34l26 -12l40 -16l40 -20l12 -7h2v1l-19 44l-24 43l-44 51l-23 14h-15l-13 3l-46 9l-13 -1l-18 7v0zM392 75l-18 18l-14 13
l-7 3l-3 -3h-5l-7 -3l-12 -3l-28 -5l-5 -4l-17 -6l-19 -20l-16 -33l-6 -20l1 1l5 2h1h2h2v8l9 26l9 13h2l10 10l27 19l2 -4l-5 -5l-7 -4l-22 -18l-9 -13l-5 -14l-6 -28h1v7l5 3h3l4 2l-2 9l4 7l35 40l13 5l1 -1l24 4l20 -1l10 -5v2l-4 4l-18 12v2l3 3l2 -2l7 -3l8 -8l13 -13
l4 -5v-2l5 -5h3l4 -2v2l-1 9l-3 6v0zM404 154l9 21l-4 9l-8 11l-27 15l-24 4l-3 -1l-5 -5v-9l-19 -21l-4 -10l-43 -47v-2h2l2 1l18 4l3 -4l-11 -6l6 -1l19 8l8 3l22 -3l18 -6l7 1l10 -9h4v2l4 4l1 5l10 17l5 19v0zM438 198l4 1l-1 14v-5l-4 -4l-1 -6h2v0zM446 249l2 8h-2v-2
l-4 -2l-5 -3l-8 2l-1 -2l-2 2h-5l-29 -2l-13 -2l-29 -9l-17 -9l-12 -9l-44 -5l-6 -2l-1 2h-1l-3 -3h-4l-2 3h1l1 5l7 24l6 31l-2 15l2 9l-4 3l-2 8h-3l-5 9l-1 8l-4 12l1 34h-2l-5 -4l-8 -3l-11 -30l10 9l1 -1v-3l-10 -11l-2 -9l-12 -17l-25 -29h-6l-10 -9l-3 -23l1 -5
l-1 -1l3 -20l12 -23l9 -2l10 -4l8 -6v-5l12 -17l2 -14h2l12 -5l3 -4l29 -3l25 28l17 20l3 17l-1 4l3 3l30 16l21 -2l27 -7l17 -11l6 -20l6 33l2 21l4 5l3 -4v-2l7 13v0zM287 285v-3l-2 -3h-1v-5l-2 -6l2 -5l17 -22l13 -8h5l8 3v2l4 4l4 3l-19 10l-15 13l-6 9l-8 8v0z
M320 272l1 -1l-1 -2v-3l10 -4l9 -5l6 -5h2v1l-5 5v5l-11 9l-1 4l-7 1l-3 -5v0zM334 288l1 -1h10l14 -7l9 -1l2 3l-5 3h-6l-5 3l-16 3l-4 -3v0zM300 233l-19 21l-4 -16l-8 -19l22 8l14 3l-5 3v0zM476 199v2l-5 6l-3 9l-4 3l-1 5l-5 25l1 1v5l-1 2l1 1v5h-2l-8 -34l2 -15
l7 -15l6 -3l12 3v0zM486 267l-6 12l4 -21l3 -34l-3 -10h-1l-5 4l-4 11l-3 24l1 21l-1 2l-2 -29l4 -24l7 -18h3l1 2l3 12l4 10l-5 38v0zM487 294l20 11h-13l-5 -5l-2 -6v0zM532 362l2 26l-4 20l-3 2l3 7l2 20l-20 46l-18 21l-10 4l-16 6l-42 9l-2 -1l-3 2l-45 4l-8 -1l22 -3
l6 -6l-1 -1l-45 -1l-1 1l-78 -8l-30 -9l-8 -3l-3 -5l-12 -4l-10 -11h3l21 -5l23 -15l25 -31l7 2l6 6l14 7l20 16l15 10l3 -3l-1 -1l-14 -11l6 2l14 9l3 -3l-1 -1v-2h2l1 2l15 3l18 2l8 -2v-2l-1 -1l-13 -2l-49 -11l-32 -18v-2l17 2l5 -5l11 -31l11 -20l17 -34l3 3l3 -3
l-3 -2l-6 -5l-2 1l-8 10l-4 1l2 -7l-2 -2l-1 2l-9 16h-4l-4 -3l-4 -4l-9 -2l-10 3l-4 5l-2 3l-2 11l8 11l1 7l-21 3l-3 2l3 3l14 3l12 -2v2l-5 6l-7 17l-8 3l-31 -30l1 -2h4l1 2l4 -4v-1l11 -2l5 -4v-4l-1 -1h-2l-1 1l-15 2v-1l-4 -24l3 -18l12 -24l34 -37h3v1l4 10l1 10
l2 3l18 1l24 -6l13 -5l7 -7l-4 -4l-11 -5l-15 -18h4l2 1l28 9l24 3l5 -3l12 1l13 7l26 39l16 24v3l4 4l4 5l6 36h-3l-16 -10l-29 -10l-23 -2l-5 -3l-41 -3l-25 3l-8 13l3 2l30 -3l68 5l13 5l30 8l30 8l1 -1v-2l-6 -5l-13 -2l-3 -40l-3 -3h-3l-5 -9v-7l-3 -5l-20 -39h2l14 16
l15 24l8 10l2 -1v-4l-2 -4l-3 -9h1l5 6l15 22l9 20v0zM739 475v4l-13 13v5l-6 6l-22 16l-18 9l-6 4l-10 2l-5 -2l-8 6h-5l-23 10l-26 10l-38 9l-39 5l-57 1l-7 -4l-3 -2h-16l-58 -11l-7 -5l-9 -5l-29 -17h5l16 2l4 2h5l82 -4l15 -5l27 -13l12 -2l17 -16l23 -38l3 -10l-2 -1
l-3 -25l-4 -6v-7l7 -9v-2l2 -4l-2 -4l2 -2v-5v-1v-9l3 2l11 18l9 11l13 23l35 33l30 12l19 8l34 5l30 -3l12 -4v0zM298 343l-11 14l-3 12h1l8 -15l8 -11l24 -5h1l1 -1l-1 -1l-17 2l-11 5v0zM486 360l1 -9v-2l-3 -3l-13 -1l-15 -4v-3l8 -11v-4l-8 8h-3l-12 -14l-9 -9l-11 -5
l-10 2l-3 5l3 13l-2 2l-9 -3l-6 -4l-2 2l9 6l-11 2v3l26 7l35 16l26 13l5 -1l4 -6v0zM421 294l-21 8l-8 8v3l9 -8l15 -5l20 2l1 1l1 -1l-17 -8v0zM367 300h-4l-3 2l2 3h5l2 -3l-2 -2v0z" />
    <glyph glyph-name="underscore" unicode="_" horiz-adv-x="534" 
d="M1 -152h499v-47h-499v47z" />
    <glyph glyph-name="a" unicode="a" horiz-adv-x="522" 
d="M513 0h-228l45 52l-32 156h-125l-41 -160l53 -48h-186l70 52l139 504l-63 50h156l154 -562l58 -44v0zM183 245h105l-53 212l-52 -212v0z" />
    <glyph glyph-name="b" unicode="b" horiz-adv-x="420" 
d="M244 312c31.333 -2.66699 59.334 -9.66895 84.001 -21.002c10.667 -4.66699 21 -10.667 31 -18s18.667 -16.166 26 -26.499s13.333 -22.333 18 -36s6.66699 -29.167 6 -46.5c-2 -49.333 -17 -86.666 -45 -111.999c-14.667 -14 -33.334 -24.5 -56.001 -31.5
s-44.667 -12.167 -66 -15.5c-25.333 -3.33301 -51.333 -5 -78 -5h-164l67 40v520l-56 45h191c10 0 24.167 -1.66699 42.5 -5s36.5 -10 54.5 -20s33.833 -24.5 47.5 -43.5s21.167 -44.5 22.5 -76.5c0.666992 -32.667 -5.33301 -58.5 -18 -77.5s-27 -33.833 -43 -44.5
c-18.667 -12 -40 -20.667 -64 -26zM169.001 333.998c23.333 -0.666992 43.668 3 61.001 11c7.33301 3.33301 14.666 7.83301 21.999 13.5s13.666 13 18.999 22s9.5 19.667 12.5 32s4.16699 26.833 3.5 43.5c-1.33301 29.333 -8.16602 51.5 -20.499 66.5
s-25.833 25.833 -40.5 32.5c-17.333 7.33301 -36.333 11.333 -57 12v-233zM304.003 167.998c0.666992 24 -3.99512 43.5029 -13.9951 58.5029s-21 27.167 -33 36.5c-10.667 7.33301 -21.334 12.666 -32.001 15.999s-20.334 5.66602 -29.001 6.99902
c-10 1.33301 -19.667 1.66602 -29 0.999023v-247c7.33301 -0.666992 15 -0.333984 23 0.999023c7.33301 1.33301 15.166 3 23.499 5s17.166 5.66699 26.499 11c15.333 8.66699 29.666 21.834 42.999 39.501s20.333 41.5 21 71.5z" />
    <glyph glyph-name="c" unicode="c" horiz-adv-x="353" 
d="M334 263v-235.002c-13.333 -7.33301 -27 -14 -41 -20c-12 -5.33301 -25.5 -9.83301 -40.5 -13.5s-29.833 -5.5 -44.5 -5.5c-30 0 -58.833 7.5 -86.5 22.5s-51.167 37.5 -70.5 67.5c-19.333 28 -32.666 61.5 -39.999 100.5s-11 80.167 -11 123.5
c0 39.333 3.16699 76 9.5 110s17.166 65 32.499 93c19.333 34.667 43.5 61.834 72.5 81.501s60.167 30.5 93.5 32.5c26 1.33301 47.167 0.333008 63.5 -3s29.166 -7.33301 38.499 -12c10.667 -6 18.667 -12.667 24 -20v-207l-89 192c-8.66699 5.33301 -21.667 7 -39 5
c-14.667 -1.33301 -28.334 -9.16602 -41.001 -23.499s-23.834 -33.5 -33.501 -57.5s-17.167 -52.167 -22.5 -84.5s-8 -67.833 -8 -106.5c0 -38 2.83301 -73.5 8.5 -106.5s13.334 -61.667 23.001 -86s20.834 -43.333 33.501 -57s26.334 -20.5 41.001 -20.5
c6 0 12.667 1.5 20 4.5s13.333 6.83301 18 11.5z" />
    <glyph glyph-name="d" unicode="d" horiz-adv-x="405" 
d="M392 331c3.33301 -63.333 -3 -119.667 -19 -169c-6.66699 -21.333 -15.834 -41.833 -27.501 -61.5s-26.5 -37.167 -44.5 -52.5s-39.667 -27.5 -65 -36.5s-55 -12.833 -89 -11.5h-144l53 43v519l-56 45h136c46.667 0 88.334 -9.33301 125.001 -28
c16 -8 31.5 -18.5 46.5 -31.5s28.5 -29.5 40.5 -49.5s22 -43.667 30 -71s12.667 -59.333 14 -96zM203 54.999c8 4.66699 17.6689 11.834 29.002 21.501s22 24.167 32 43.5s18.167 44.833 24.5 76.5s9.16602 72.167 8.49902 121.5c2 38 -0.666992 73 -8 105
c-3.33301 14 -7.5 28 -12.5 42s-11.5 27.167 -19.5 39.5s-17.833 23.5 -29.5 33.5s-25.167 17.667 -40.5 23c-6.66699 2 -11.667 3 -15 3h-15v-519c5.33301 -0.666992 10.666 -0.666992 15.999 0c10.667 1.33301 20.667 4.66602 30 9.99902z" />
    <glyph glyph-name="e" unicode="e" horiz-adv-x="375" 
d="M1 605h351v-214l-73 181h-119v-242h71l48 72v-181l-46 67h-73v-242h123l69 226v-272h-351l44 38v528l-44 39v0z" />
    <glyph glyph-name="f" unicode="f" horiz-adv-x="375" 
d="M1 605h351v-214l-73 181h-119v-242h71l48 72v-181l-46 67h-73v-247l48 -41h-207l44 38v528z" />
    <glyph glyph-name="g" unicode="g" horiz-adv-x="389" 
d="M372 277l-38 -42.002v-207c-13.333 -7.33301 -27 -14 -41 -20c-12 -5.33301 -25.5 -9.83301 -40.5 -13.5s-29.833 -5.5 -44.5 -5.5c-30 0 -58.833 7.5 -86.5 22.5s-51.167 37.5 -70.5 67.5c-19.333 28 -32.666 61.5 -39.999 100.5s-11 80.167 -11 123.5
c0 39.333 3.16699 76 9.5 110s17.166 65 32.499 93c19.333 34.667 43.5 61.834 72.5 81.501s60.167 30.5 93.5 32.5c26 1.33301 47.167 0.333008 63.5 -3s29.166 -7.33301 38.499 -12c10.667 -6 18.667 -12.667 24 -20v-194l-89 179c-8.66699 5.33301 -21.667 7 -39 5
c-14.667 -1.33301 -28.334 -9.16602 -41.001 -23.499s-23.834 -33.5 -33.501 -57.5s-17.167 -52.167 -22.5 -84.5s-8 -67.833 -8 -106.5c0 -38 2.83301 -73.5 8.5 -106.5s13.334 -61.667 23.001 -86s20.834 -43.333 33.501 -57s26.334 -20.5 41.001 -20.5
c6 0 12.667 1.5 20 4.5s13.333 6.83301 18 11.5v185l-39 43h166z" />
    <glyph glyph-name="h" unicode="h" horiz-adv-x="437" 
d="M382 570v-525l39 -45h-190l47 45v235h-130v-238l44 -42h-187l40 42v523l-45 40h185l-37 -43v-238h130v241l-41 40h188z" />
    <glyph glyph-name="i" unicode="i" horiz-adv-x="231" 
d="M1 605h209l-42 -30v-532l43 -43h-206l43 41v531l-47 33v0z" />
    <glyph glyph-name="j" unicode="j" horiz-adv-x="304" 
d="M296 605l-46.001 -40.001v-390c0 -32.667 -5 -62 -15 -88c-4.66699 -11.333 -10.5 -22.166 -17.5 -32.499s-16 -19.666 -27 -27.999s-24 -14.833 -39 -19.5s-32.833 -7 -53.5 -7c-19.333 0 -35.333 2.66699 -48 8s-22.667 11 -30 17
c-8.66699 7.33301 -15.334 15.333 -20.001 24l24 26c2.66699 -4.66699 6.66699 -8.33398 12 -11.001c4.66699 -2.66699 10.834 -5 18.501 -7s17.167 -2.33301 28.5 -1c14.667 1.33301 25.834 7.33301 33.501 18s13.167 22.667 16.5 36c3.33301 15.333 5 32.333 5 51v406
l-48 38h206z" />
    <glyph glyph-name="k" unicode="k" horiz-adv-x="468" 
d="M152 40l43 -40h-195l50 42v529l-48 34h193l-43 -34v-196l129 197l-28 33h136l-47 -33l-143 -223l204 -308l58 -41h-234l53 36l-128 202v-198z" />
    <glyph glyph-name="l" unicode="l" horiz-adv-x="322" 
d="M308 0h-308l49 37v528l-49 40h216l-48 -34v-532h69l71 222v-261v0z" />
    <glyph glyph-name="m" unicode="m" horiz-adv-x="597" 
d="M0 0l50 42v521l-50 42h163l128 -346l139 346h152l-52 -42v-523l48 -40h-212l53 40v395l-153 -435l-148 435v-391l43 -44h-161z" />
    <glyph glyph-name="n" unicode="n" horiz-adv-x="409" 
d="M0 0l50 42v521l-50 42h118l183 -343v309l-42 34h139l-32 -30v-575h-65l-183 369v-325l43 -44h-161v0z" />
    <glyph glyph-name="o" unicode="o" horiz-adv-x="430" 
d="M376 498c13.333 -26 23.334 -55.8301 30.001 -89.4971s10 -68.834 10 -105.501c0 -21.333 -1.33301 -42.833 -4 -64.5s-6.5 -42.667 -11.5 -63s-11.167 -39.5 -18.5 -57.5s-15.333 -34 -24 -48c-18.667 -30 -41 -51 -67 -63s-53.667 -18 -83 -18s-58 7.66699 -86 23
s-51.667 37.666 -71 66.999c-19.333 28 -32.666 61.5 -39.999 100.5s-11 80.167 -11 123.5c0 38.667 3.16699 75.167 9.5 109.5s17.166 65.5 32.499 93.5c19.333 35.333 43.5 63.166 72.5 83.499s60.167 30.5 93.5 30.5c34 0 65.667 -10.833 95 -32.5
s53.666 -51.5 72.999 -89.5zM207.001 33.0029c14.667 0 28.1641 7 40.4971 21s23 33 32 57s16.167 52.5 21.5 85.5s8 68.5 8 106.5c0 38.667 -2.66699 74.5 -8 107.5s-12.666 61.833 -21.999 86.5s-20.166 44 -32.499 58s-25.833 21 -40.5 21c-14 0 -27.5 -7 -40.5 -21
s-24.167 -33.333 -33.5 -58s-16.833 -53.5 -22.5 -86.5s-8.5 -68.833 -8.5 -107.5c0 -38 2.83301 -73.5 8.5 -106.5s13.334 -61.5 23.001 -85.5s21 -43 34 -57s26.5 -21 40.5 -21z" />
    <glyph glyph-name="p" unicode="p" horiz-adv-x="379" 
d="M169 334c23.333 -0.666992 43.668 3 61.001 11c7.33301 3.33301 14.666 7.83301 21.999 13.5s13.666 13 18.999 22s9.5 19.667 12.5 32s4.16699 26.833 3.5 43.5c-1.33301 29.333 -8.16602 51.5 -20.499 66.5s-25.833 25.833 -40.5 32.5
c-17.333 7.33301 -36.333 11.333 -57 12v-233zM0.00195312 0l66.998 40v520l-56 45h191c10 0 24.333 -1.66699 43 -5s37 -10 55 -20s33.833 -24.5 47.5 -43.5s20.834 -44.5 21.501 -76.5c0.666992 -28 -2.66602 -51.667 -9.99902 -71s-16.833 -35.333 -28.5 -48
s-25.167 -22.5 -40.5 -29.5s-30.5 -12 -45.5 -15s-29.333 -4.83301 -43 -5.5s-25.167 -0.666992 -34.5 0v-251l66 -40h-233z" />
    <glyph glyph-name="q" unicode="q" horiz-adv-x="500" 
d="M-21 -48c1.33301 13.333 5.83496 25.166 13.502 35.499s16.667 19 27 26s21.666 12.333 33.999 16s24.166 5.83398 35.499 6.50098c-7.33301 6 -14.166 12.5 -20.499 19.5s-12.166 14.833 -17.499 23.5c-19.333 28 -32.666 61.5 -39.999 100.5s-11 80.167 -11 123.5
c0 38.667 3.16699 75.167 9.5 109.5s17.166 65.5 32.499 93.5c19.333 35.333 43.5 63.166 72.5 83.499s60.167 30.5 93.5 30.5c34 0 65.667 -10.833 95 -32.5s53.666 -51.5 72.999 -89.5c13.333 -26 23.333 -55.833 30 -89.5s10 -68.834 10 -105.501
c0 -21.333 -1.33301 -42.833 -4 -64.5s-6.5 -42.667 -11.5 -63s-11.167 -39.5 -18.5 -57.5s-15.333 -34 -24 -48c-9.33301 -15.333 -20 -28.166 -32 -38.499s-24.667 -18.833 -38 -25.5c9.33301 -10 20 -18.667 32 -26s23.667 -13.333 35 -18c12 -6 24.667 -10.667 38 -14
l161 38l-147 -121c-12.667 -2 -24.334 -2.66699 -35.001 -2s-20.167 2.16699 -28.5 4.5s-15.5 5 -21.5 8s-10.667 5.5 -14 7.5c-19.333 12 -36 24.667 -50 38s-28.5 25.5 -43.5 36.5s-31.833 19.833 -50.5 26.5s-42 9.33398 -70 8.00098
c-19.333 -1.33301 -38.833 -6 -58.5 -14s-34.167 -22.667 -43.5 -44zM101.002 303c0 -32 1.99902 -62.1689 5.99902 -90.502s9.5 -54 16.5 -77s15.333 -42.667 25 -59s20.167 -28.166 31.5 -35.499c13.333 -0.666992 26.666 -2.66699 39.999 -6
c12.667 4 24.5 13.667 35.5 29s20.5 34.833 28.5 58.5s14.167 50.834 18.5 81.501s6.5 63.667 6.5 99c0 38.667 -2.66699 74.5 -8 107.5s-12.666 61.833 -21.999 86.5s-20.166 44 -32.499 58s-25.833 21 -40.5 21c-14 0 -27.5 -7 -40.5 -21s-24.167 -33.333 -33.5 -58
s-16.833 -53.5 -22.5 -86.5s-8.5 -68.833 -8.5 -107.5z" />
    <glyph glyph-name="r" unicode="r" horiz-adv-x="466" 
d="M0 0l66.998 40v520l-56 45h191c10 0 24.333 -1.66699 43 -5s37 -10 55 -20s33.833 -24.5 47.5 -43.5s20.834 -44.5 21.501 -76.5c0.666992 -30.667 -3.16602 -56.5 -11.499 -77.5s-18.333 -38 -30 -51s-24 -22.5 -37 -28.5s-23.5 -9 -31.5 -9l136 -253l53 -41h-154
l-127 262v-222l66 -40h-233zM168.998 334c23.333 -0.666992 43.668 3 61.001 11c7.33301 3.33301 14.666 7.83301 21.999 13.5s13.666 13 18.999 22s9.5 19.667 12.5 32s4.16699 26.833 3.5 43.5c-1.33301 29.333 -8.16602 51.5 -20.499 66.5s-25.833 25.833 -40.5 32.5
c-17.333 7.33301 -36.333 11.333 -57 12v-233z" />
    <glyph glyph-name="s" unicode="s" horiz-adv-x="360" 
d="M231 552c-13.333 6 -26.333 10.3379 -39 13.0049c-11.333 1.33301 -23.166 0.833008 -35.499 -1.5s-23.833 -9.5 -34.5 -21.5c-15.333 -17.333 -22 -33.833 -20 -49.5s9.33301 -31.834 22 -48.501s29.167 -33.834 49.5 -51.501l63.5 -57.5
c24.667 -23.333 44.167 -44 58.5 -62s24.666 -34.833 30.999 -50.5s10 -31 11 -46s1.16699 -31.5 0.5 -49.5c-1.33301 -28 -8 -50.333 -20 -67s-26.333 -29.5 -43 -38.5s-33.834 -15 -51.501 -18s-33.167 -4.5 -46.5 -4.5c-30 -0.666992 -55 0.833008 -75 4.5
s-35.667 7.83398 -47 12.501c-13.333 5.33301 -23.666 11.333 -30.999 18v231l78 -203c7.33301 -6.66699 15.666 -11.667 24.999 -15c8 -3.33301 17.5 -5.83301 28.5 -7.5s23.167 -0.833984 36.5 2.49902c12.667 2.66699 22.667 7.5 30 14.5s12.833 15.333 16.5 25
s5.33398 20.167 5.00098 31.5s-1.83301 23 -4.5 35c-5.33301 23.333 -16.833 43.666 -34.5 60.999s-36.5 34.666 -56.5 51.999l-43.5 37.5c-13 11.667 -24.833 23.167 -35.5 34.5s-19.667 22.666 -27 33.999s-13 23.666 -17 36.999
c-9.33301 30.667 -11.5 58.834 -6.5 84.501s14.833 47.5 29.5 65.5s33 32 55 42s45.333 15 70 15s45.834 -1.5 63.501 -4.5s32.167 -6.5 43.5 -10.5c13.333 -4.66699 24.666 -10 33.999 -16v-206z" />
    <glyph glyph-name="t" unicode="t" horiz-adv-x="355" 
d="M0 396v209h348v-211l-69 165h-47v-518l44 -41h-202l45 39v520h-53z" />
    <glyph glyph-name="u" unicode="u" horiz-adv-x="401" 
d="M198 605l-39.9971 -38v-406c0 -20 1.66699 -37.667 5 -53c3.33301 -13.333 8.66602 -25.333 15.999 -36s18.666 -16 33.999 -16c18 0 31.5 5.66699 40.5 17s15.167 24 18.5 38c4 16.667 6 35.334 6 56.001v399l-37 39h148l-40 -38v-395c0.666992 -32 -4 -60.667 -14 -86
c-4 -10.667 -9.66699 -21.167 -17 -31.5s-16.5 -19.5 -27.5 -27.5s-24 -14.5 -39 -19.5s-32.833 -7.5 -53.5 -7.5s-38.667 2.5 -54 7.5s-28.5 11.5 -39.5 19.5s-20.167 17.167 -27.5 27.5s-13 21.166 -17 32.499c-10.667 26 -15.334 55.333 -14.001 88v390l-46 40h198z" />
    <glyph glyph-name="v" unicode="v" horiz-adv-x="457" 
d="M0 605h202l-45 -41l90 -328l77 329l-56 40h177l-58 -41l-138 -564h-46l-154 564z" />
    <glyph glyph-name="w" unicode="w" horiz-adv-x="733" 
d="M0 605h202l-45 -41l90 -328l77 328l-56 41h209l-45 -41l90 -328l77 329l-56 40h177l-58 -41l-138 -564h-46l-121 442l-108 -442h-46l-154 564z" />
    <glyph glyph-name="x" unicode="x" horiz-adv-x="486" 
d="M-10 605h189l-27 -31l83 -167l80 165l-28 33h140l-47 -33l-113 -228l154 -303l58 -41h-231l53 36l-95 196l-84 -191l43 -41h-165l57 41l117 258l-133 268l-51 38v0z" />
    <glyph glyph-name="y" unicode="y" horiz-adv-x="416" 
d="M-3 605h181l-30 -41l76 -171l74 171l-34 41h126l-35 -41l-99 -236v-285l36 -43h-188l40 46v279l-102 239l-45 41v0z" />
    <glyph glyph-name="z" unicode="z" horiz-adv-x="357" 
d="M261 42l75 232v-274h-336l209 566h-126l-83 -176v215h336l-211 -563h136z" />
    <glyph glyph-name="braceleft" unicode="{" horiz-adv-x="326" 
d="M288 730c1.33301 -5.33301 2.33301 -9.99902 3 -13.999s1 -5.33301 1 -4c-28.667 0 -50.834 -3.16699 -66.501 -9.5s-27 -15.333 -34 -27s-10.333 -25.5 -10 -41.5s2.16602 -33.833 5.49902 -53.5l11 -62.5c4 -22 6.66699 -44.667 8 -68
c1.33301 -35.333 -4 -64.333 -16 -87s-25.333 -40.5 -40 -53.5s-28.167 -21.667 -40.5 -26s-18.166 -6.16602 -17.499 -5.49902c0 0.666992 6 -1.16602 18 -5.49902s25.167 -13 39.5 -26s27.333 -31.333 39 -55s17.5 -54.5 17.5 -92.5c0 -31.333 -2 -60 -6 -86l-11 -70
c-3.33301 -20.667 -5.33301 -38.834 -6 -54.501s2 -28.834 8 -39.501s16.667 -18.667 32 -24s37.666 -8 66.999 -8c0.666992 -8 1.33398 -15 2.00098 -21c0.666992 -5.33301 1.16699 -10 1.5 -14s-0.166992 -5.66699 -1.5 -5c-44.667 -1.33301 -80.167 2.16699 -106.5 10.5
s-46.166 19.833 -59.499 34.5s-21.5 32.167 -24.5 52.5s-3.33301 42.5 -1 66.5s5.83301 49 10.5 75s8 52 10 78c1.33301 18.667 0.666016 35.5 -2.00098 50.5s-6.66699 28 -12 39s-11.666 20.5 -18.999 28.5s-15 14.667 -23 20c-18.667 12 -40.667 20 -66 24v17v11
c0 3.33301 0.333008 5 1 5c38.667 11.333 66.334 27.166 83.001 47.499s27 44.166 31 71.499s3.66699 57.833 -1 91.5s-9.33398 69.167 -14.001 106.5c-3.33301 30.667 0.5 55.167 11.5 73.5s24.167 31.833 39.5 40.5c18.667 11.333 36.167 18.833 52.5 22.5
s30.5 5.83398 42.5 6.50098s21.5 0.5 28.5 -0.5s10.5 -0.5 10.5 1.5z" />
    <glyph glyph-name="bar" unicode="|" horiz-adv-x="185" 
d="M71 701h47v-866h-47v866z" />
    <glyph glyph-name="braceright" unicode="}" horiz-adv-x="317" 
d="M10 750c0 -2 3.50098 -2.50098 10.501 -1.50098s16.5 1.16699 28.5 0.5s26.167 -2.83398 42.5 -6.50098s33.833 -11.167 52.5 -22.5c15.333 -8.66699 28.5 -22.167 39.5 -40.5s14.833 -42.833 11.5 -73.5c-4.66699 -37.333 -9.33398 -72.833 -14.001 -106.5
s-5 -64.167 -1 -91.5s14.333 -51.166 31 -71.499s44.334 -36.166 83.001 -47.499v-5c0 -1.33301 0.166992 -3 0.5 -5s0.5 -4 0.5 -6v-17c-25.333 -4 -47.333 -12 -66 -24c-8 -5.33301 -15.667 -12 -23 -20s-13.833 -17.5 -19.5 -28.5s-9.83398 -24 -12.501 -39
s-3 -31.833 -1 -50.5c2 -26 5.33301 -52 10 -78s8.16699 -51 10.5 -75s2 -46.167 -1 -66.5s-11.167 -37.833 -24.5 -52.5s-33.166 -26.167 -59.499 -34.5s-61.833 -11.833 -106.5 -10.5c-1.33301 -0.666992 -2 1 -2 5s0.333008 8.66699 1 14c0.666992 6 1.66699 13 3 21
c28.667 0 50.834 2.66699 66.501 8s26.5 13.333 32.5 24s8.66699 23.834 8 39.501s-2.66699 33.834 -6 54.501l-11 70c-4 26 -6 54.667 -6 86c0 38 5.83301 68.833 17.5 92.5s24.667 42 39 55s27.5 21.667 39.5 26s18 6.16602 18 5.49902
c0.666992 -0.666992 -5.16602 1.16602 -17.499 5.49902s-25.833 13 -40.5 26s-28 30.833 -40 53.5s-17.333 51.667 -16 87c0.666992 23.333 3.16699 46 7.5 68s8.16602 42.833 11.499 62.5s5.16602 37.5 5.49902 53.5s-3 29.833 -10 41.5s-18.333 20.667 -34 27
s-37.834 9.5 -66.501 9.5c-0.666992 -1.33301 -0.5 0 0.5 4l3.5 14z" />
    <glyph glyph-name=".null" horiz-adv-x="0" 
 />
    <glyph glyph-name="nonmarkingreturn" 
 />
    </font>
</defs>
</svg>
